<mxfile host="app.diagrams.net" agent="Mozilla/5.0 (Windows NT 10.0; Win64; x64) AppleWebKit/537.36 (KHTML, like Gecko) Chrome/138.0.0.0 Safari/537.36" version="27.2.0">
  <diagram name="Page-1" id="roh6KnmNC_CqFtfLWw61">
    <mxGraphModel dx="3715" dy="1625" grid="1" gridSize="10" guides="1" tooltips="1" connect="1" arrows="1" fold="1" page="1" pageScale="1" pageWidth="850" pageHeight="1100" math="0" shadow="0">
      <root>
        <mxCell id="0" />
        <mxCell id="1" parent="0" />
        <mxCell id="2_Iygicu3eXnhnH_t8sV-2" value="" style="rounded=0;whiteSpace=wrap;html=1;dashed=1;strokeWidth=3;" vertex="1" parent="1">
          <mxGeometry x="-50" y="560" width="170" height="520" as="geometry" />
        </mxCell>
        <mxCell id="2_Iygicu3eXnhnH_t8sV-3" value="" style="shape=cylinder3;whiteSpace=wrap;html=1;boundedLbl=1;backgroundOutline=1;size=15;strokeWidth=3;" vertex="1" parent="1">
          <mxGeometry y="590" width="70" height="90" as="geometry" />
        </mxCell>
        <mxCell id="2_Iygicu3eXnhnH_t8sV-4" value="&lt;font style=&quot;font-size: 14px;&quot;&gt;&lt;b&gt;Historical Weather data&lt;/b&gt;&lt;/font&gt;" style="text;html=1;align=center;verticalAlign=middle;resizable=0;points=[];autosize=1;strokeColor=none;fillColor=none;strokeWidth=3;" vertex="1" parent="1">
          <mxGeometry x="-55" y="690" width="180" height="30" as="geometry" />
        </mxCell>
        <mxCell id="2_Iygicu3eXnhnH_t8sV-5" value="&lt;font style=&quot;font-size: 14px;&quot;&gt;&lt;b&gt;Soil data&lt;/b&gt;&lt;/font&gt;" style="text;html=1;align=center;verticalAlign=middle;resizable=0;points=[];autosize=1;strokeColor=none;fillColor=none;strokeWidth=3;" vertex="1" parent="1">
          <mxGeometry x="-5" y="850" width="80" height="30" as="geometry" />
        </mxCell>
        <mxCell id="2_Iygicu3eXnhnH_t8sV-6" value="" style="shape=cylinder3;whiteSpace=wrap;html=1;boundedLbl=1;backgroundOutline=1;size=15;strokeWidth=3;" vertex="1" parent="1">
          <mxGeometry y="750" width="70" height="90" as="geometry" />
        </mxCell>
        <mxCell id="2_Iygicu3eXnhnH_t8sV-7" value="&lt;font style=&quot;font-size: 14px;&quot;&gt;&lt;b&gt;Seed,Variety,and&amp;nbsp;&lt;/b&gt;&lt;/font&gt;&lt;div&gt;&lt;font style=&quot;font-size: 14px;&quot;&gt;&lt;b&gt;planting data&lt;/b&gt;&lt;/font&gt;&lt;/div&gt;" style="text;html=1;align=center;verticalAlign=middle;resizable=0;points=[];autosize=1;strokeColor=none;fillColor=none;strokeWidth=3;" vertex="1" parent="1">
          <mxGeometry x="-35" y="1000" width="140" height="50" as="geometry" />
        </mxCell>
        <mxCell id="2_Iygicu3eXnhnH_t8sV-9" value="" style="shape=cylinder3;whiteSpace=wrap;html=1;boundedLbl=1;backgroundOutline=1;size=15;strokeWidth=3;" vertex="1" parent="1">
          <mxGeometry y="910" width="70" height="90" as="geometry" />
        </mxCell>
        <mxCell id="2_Iygicu3eXnhnH_t8sV-10" value="&lt;font style=&quot;font-size: 14px;&quot;&gt;&lt;b&gt;Module data files&lt;/b&gt;&lt;/font&gt;" style="text;html=1;align=center;verticalAlign=middle;resizable=0;points=[];autosize=1;strokeColor=none;fillColor=none;rotation=-90;strokeWidth=3;" vertex="1" parent="1">
          <mxGeometry x="-140" y="620" width="140" height="30" as="geometry" />
        </mxCell>
        <mxCell id="2_Iygicu3eXnhnH_t8sV-11" value="" style="rounded=0;whiteSpace=wrap;html=1;dashed=1;strokeWidth=3;" vertex="1" parent="1">
          <mxGeometry x="-50" y="1120" width="170" height="180" as="geometry" />
        </mxCell>
        <mxCell id="2_Iygicu3eXnhnH_t8sV-12" value="&lt;font style=&quot;font-size: 14px;&quot;&gt;&lt;b&gt;IOT weather Stations&lt;/b&gt;&lt;/font&gt;" style="text;html=1;align=center;verticalAlign=middle;resizable=0;points=[];autosize=1;strokeColor=none;fillColor=none;strokeWidth=3;" vertex="1" parent="1">
          <mxGeometry x="-45" y="1120" width="160" height="30" as="geometry" />
        </mxCell>
        <mxCell id="2_Iygicu3eXnhnH_t8sV-13" value="" style="sketch=0;outlineConnect=0;fontColor=#232F3E;gradientColor=none;fillColor=#7AA116;strokeColor=none;dashed=0;verticalLabelPosition=bottom;verticalAlign=top;align=center;html=1;fontSize=12;fontStyle=0;aspect=fixed;pointerEvents=1;shape=mxgraph.aws4.iot_thing_temperature_humidity_sensor;strokeWidth=3;" vertex="1" parent="1">
          <mxGeometry x="-5" y="1160" width="78" height="78" as="geometry" />
        </mxCell>
        <mxCell id="2_Iygicu3eXnhnH_t8sV-14" value="&lt;b&gt;IoT temperature,&amp;nbsp;&lt;/b&gt;&lt;div&gt;&lt;b&gt;precipitation&amp;nbsp;&lt;/b&gt;&lt;b style=&quot;background-color: transparent; color: light-dark(rgb(0, 0, 0), rgb(255, 255, 255));&quot;&gt;and solar&amp;nbsp;&lt;/b&gt;&lt;div&gt;&lt;b&gt;readiation&amp;nbsp;&lt;/b&gt;&lt;b style=&quot;background-color: transparent; color: light-dark(rgb(0, 0, 0), rgb(255, 255, 255));&quot;&gt;sensors&lt;/b&gt;&lt;/div&gt;&lt;/div&gt;" style="text;html=1;align=center;verticalAlign=middle;resizable=0;points=[];autosize=1;strokeColor=none;fillColor=none;strokeWidth=3;" vertex="1" parent="1">
          <mxGeometry x="-45" y="1238" width="160" height="60" as="geometry" />
        </mxCell>
        <mxCell id="2_Iygicu3eXnhnH_t8sV-16" value="IoT MQTT protocol" style="points=[[0,0],[0.25,0],[0.5,0],[0.75,0],[1,0],[1,0.25],[1,0.5],[1,0.75],[1,1],[0.75,1],[0.5,1],[0.25,1],[0,1],[0,0.75],[0,0.5],[0,0.25]];outlineConnect=0;gradientColor=none;html=1;whiteSpace=wrap;fontSize=12;fontStyle=0;container=1;pointerEvents=0;collapsible=0;recursiveResize=0;shape=mxgraph.aws4.group;grIcon=mxgraph.aws4.group_aws_cloud_alt;strokeColor=#232F3E;fillColor=none;verticalAlign=top;align=left;spacingLeft=30;fontColor=#232F3E;dashed=0;strokeWidth=3;" vertex="1" parent="1">
          <mxGeometry x="170" y="560" width="940" height="740" as="geometry" />
        </mxCell>
        <mxCell id="2_Iygicu3eXnhnH_t8sV-66" value="" style="sketch=0;outlineConnect=0;fontColor=#232F3E;gradientColor=none;fillColor=#7AA116;strokeColor=none;dashed=0;verticalLabelPosition=bottom;verticalAlign=top;align=center;html=1;fontSize=12;fontStyle=0;aspect=fixed;pointerEvents=1;shape=mxgraph.aws4.mqtt_protocol;strokeWidth=3;" vertex="1" parent="2_Iygicu3eXnhnH_t8sV-16">
          <mxGeometry x="-20" y="440" width="58" height="58" as="geometry" />
        </mxCell>
        <mxCell id="2_Iygicu3eXnhnH_t8sV-39" value="&lt;span style=&quot;font-size: 14px;&quot;&gt;&lt;b&gt;IoT MQTT&amp;nbsp;&lt;/b&gt;&lt;/span&gt;&lt;div&gt;&lt;span style=&quot;font-size: 14px;&quot;&gt;&lt;b&gt;protocol&lt;/b&gt;&lt;/span&gt;&lt;/div&gt;" style="text;html=1;align=center;verticalAlign=middle;resizable=0;points=[];autosize=1;strokeColor=none;fillColor=none;strokeWidth=3;" vertex="1" parent="2_Iygicu3eXnhnH_t8sV-16">
          <mxGeometry x="-36" y="510" width="90" height="50" as="geometry" />
        </mxCell>
        <mxCell id="2_Iygicu3eXnhnH_t8sV-17" value="Region" style="sketch=0;outlineConnect=0;html=1;whiteSpace=wrap;fontSize=12;fontStyle=0;shape=mxgraph.aws4.group;grIcon=mxgraph.aws4.group_region;verticalAlign=top;align=left;spacingLeft=30;dashed=1;strokeWidth=3;" vertex="1" parent="1">
          <mxGeometry x="220" y="590" width="870" height="700" as="geometry" />
        </mxCell>
        <mxCell id="2_Iygicu3eXnhnH_t8sV-18" value="" style="sketch=0;points=[[0,0,0],[0.25,0,0],[0.5,0,0],[0.75,0,0],[1,0,0],[0,1,0],[0.25,1,0],[0.5,1,0],[0.75,1,0],[1,1,0],[0,0.25,0],[0,0.5,0],[0,0.75,0],[1,0.25,0],[1,0.5,0],[1,0.75,0]];outlineConnect=0;fontColor=#232F3E;fillColor=#ED7100;strokeColor=#ffffff;dashed=0;verticalLabelPosition=bottom;verticalAlign=top;align=center;html=1;fontSize=12;fontStyle=0;aspect=fixed;shape=mxgraph.aws4.resourceIcon;resIcon=mxgraph.aws4.lambda;strokeWidth=3;" vertex="1" parent="1">
          <mxGeometry x="270" y="675" width="60" height="60" as="geometry" />
        </mxCell>
        <mxCell id="2_Iygicu3eXnhnH_t8sV-19" value="&lt;font style=&quot;font-size: 14px;&quot;&gt;&lt;b&gt;AWS Lambda&lt;/b&gt;&lt;/font&gt;" style="text;html=1;align=center;verticalAlign=middle;resizable=0;points=[];autosize=1;strokeColor=none;fillColor=none;strokeWidth=3;" vertex="1" parent="1">
          <mxGeometry x="245" y="735" width="110" height="30" as="geometry" />
        </mxCell>
        <mxCell id="2_Iygicu3eXnhnH_t8sV-20" value="VPC" style="points=[[0,0],[0.25,0],[0.5,0],[0.75,0],[1,0],[1,0.25],[1,0.5],[1,0.75],[1,1],[0.75,1],[0.5,1],[0.25,1],[0,1],[0,0.75],[0,0.5],[0,0.25]];outlineConnect=0;gradientColor=none;html=1;whiteSpace=wrap;fontSize=12;fontStyle=0;container=1;pointerEvents=0;collapsible=0;recursiveResize=0;shape=mxgraph.aws4.group;grIcon=mxgraph.aws4.group_vpc2;strokeColor=#8C4FFF;fillColor=none;verticalAlign=top;align=left;spacingLeft=30;fontColor=#AAB7B8;dashed=0;strokeWidth=3;" vertex="1" parent="1">
          <mxGeometry x="600" y="620" width="240" height="165" as="geometry" />
        </mxCell>
        <mxCell id="2_Iygicu3eXnhnH_t8sV-21" value="Private subnet" style="points=[[0,0],[0.25,0],[0.5,0],[0.75,0],[1,0],[1,0.25],[1,0.5],[1,0.75],[1,1],[0.75,1],[0.5,1],[0.25,1],[0,1],[0,0.75],[0,0.5],[0,0.25]];outlineConnect=0;gradientColor=none;html=1;whiteSpace=wrap;fontSize=12;fontStyle=0;container=1;pointerEvents=0;collapsible=0;recursiveResize=0;shape=mxgraph.aws4.group;grIcon=mxgraph.aws4.group_security_group;grStroke=0;strokeColor=#00A4A6;fillColor=#E6F6F7;verticalAlign=top;align=left;spacingLeft=30;fontColor=#147EBA;dashed=0;strokeWidth=3;" vertex="1" parent="2_Iygicu3eXnhnH_t8sV-20">
          <mxGeometry x="30" y="30" width="200" height="130" as="geometry" />
        </mxCell>
        <mxCell id="2_Iygicu3eXnhnH_t8sV-22" value="" style="sketch=0;points=[[0,0,0],[0.25,0,0],[0.5,0,0],[0.75,0,0],[1,0,0],[0,1,0],[0.25,1,0],[0.5,1,0],[0.75,1,0],[1,1,0],[0,0.25,0],[0,0.5,0],[0,0.75,0],[1,0.25,0],[1,0.5,0],[1,0.75,0]];outlineConnect=0;fontColor=#232F3E;fillColor=#ED7100;strokeColor=#ffffff;dashed=0;verticalLabelPosition=bottom;verticalAlign=top;align=center;html=1;fontSize=12;fontStyle=0;aspect=fixed;shape=mxgraph.aws4.resourceIcon;resIcon=mxgraph.aws4.ec2;strokeWidth=3;" vertex="1" parent="2_Iygicu3eXnhnH_t8sV-21">
          <mxGeometry x="65.5" y="30.5" width="59" height="59" as="geometry" />
        </mxCell>
        <mxCell id="2_Iygicu3eXnhnH_t8sV-23" value="&lt;span style=&quot;font-size: 14px;&quot;&gt;&lt;b&gt;Amazon EC2&lt;/b&gt;&lt;/span&gt;" style="text;html=1;align=center;verticalAlign=middle;resizable=0;points=[];autosize=1;strokeColor=none;fillColor=none;strokeWidth=3;" vertex="1" parent="2_Iygicu3eXnhnH_t8sV-21">
          <mxGeometry x="40" y="85" width="110" height="30" as="geometry" />
        </mxCell>
        <mxCell id="2_Iygicu3eXnhnH_t8sV-24" value="" style="sketch=0;outlineConnect=0;fontColor=#232F3E;gradientColor=none;fillColor=#8C4FFF;strokeColor=none;dashed=0;verticalLabelPosition=bottom;verticalAlign=top;align=center;html=1;fontSize=12;fontStyle=0;aspect=fixed;pointerEvents=1;shape=mxgraph.aws4.endpoints;strokeWidth=3;" vertex="1" parent="1">
          <mxGeometry x="440" y="673" width="64" height="64" as="geometry" />
        </mxCell>
        <mxCell id="2_Iygicu3eXnhnH_t8sV-25" value="&lt;span style=&quot;font-size: 14px;&quot;&gt;&lt;b&gt;API Gateway&lt;/b&gt;&lt;/span&gt;" style="text;html=1;align=center;verticalAlign=middle;resizable=0;points=[];autosize=1;strokeColor=none;fillColor=none;strokeWidth=3;" vertex="1" parent="1">
          <mxGeometry x="960" y="765" width="110" height="30" as="geometry" />
        </mxCell>
        <mxCell id="2_Iygicu3eXnhnH_t8sV-26" value="&lt;span style=&quot;font-size: 14px;&quot;&gt;&lt;b&gt;VPC endpoint&lt;/b&gt;&lt;/span&gt;" style="text;html=1;align=center;verticalAlign=middle;resizable=0;points=[];autosize=1;strokeColor=none;fillColor=none;strokeWidth=3;" vertex="1" parent="1">
          <mxGeometry x="412" y="737" width="120" height="30" as="geometry" />
        </mxCell>
        <mxCell id="2_Iygicu3eXnhnH_t8sV-27" value="&lt;span style=&quot;font-size: 14px;&quot;&gt;&lt;b&gt;Amazon S3&lt;/b&gt;&lt;/span&gt;" style="text;html=1;align=center;verticalAlign=middle;resizable=0;points=[];autosize=1;strokeColor=none;fillColor=none;strokeWidth=3;" vertex="1" parent="1">
          <mxGeometry x="250" y="925" width="100" height="30" as="geometry" />
        </mxCell>
        <mxCell id="2_Iygicu3eXnhnH_t8sV-28" value="&lt;span style=&quot;font-size: 14px;&quot;&gt;&lt;b&gt;Amazon EventBridge&lt;/b&gt;&lt;/span&gt;" style="text;html=1;align=center;verticalAlign=middle;resizable=0;points=[];autosize=1;strokeColor=none;fillColor=none;strokeWidth=3;" vertex="1" parent="1">
          <mxGeometry x="811.25" y="965.5" width="160" height="30" as="geometry" />
        </mxCell>
        <mxCell id="2_Iygicu3eXnhnH_t8sV-29" value="" style="sketch=0;points=[[0,0,0],[0.25,0,0],[0.5,0,0],[0.75,0,0],[1,0,0],[0,1,0],[0.25,1,0],[0.5,1,0],[0.75,1,0],[1,1,0],[0,0.25,0],[0,0.5,0],[0,0.75,0],[1,0.25,0],[1,0.5,0],[1,0.75,0]];outlineConnect=0;fontColor=#232F3E;fillColor=#E7157B;strokeColor=#ffffff;dashed=0;verticalLabelPosition=bottom;verticalAlign=top;align=center;html=1;fontSize=12;fontStyle=0;aspect=fixed;shape=mxgraph.aws4.resourceIcon;resIcon=mxgraph.aws4.api_gateway;strokeWidth=3;" vertex="1" parent="1">
          <mxGeometry x="980" y="690" width="70" height="70" as="geometry" />
        </mxCell>
        <mxCell id="2_Iygicu3eXnhnH_t8sV-30" value="" style="sketch=0;points=[[0,0,0],[0.25,0,0],[0.5,0,0],[0.75,0,0],[1,0,0],[0,1,0],[0.25,1,0],[0.5,1,0],[0.75,1,0],[1,1,0],[0,0.25,0],[0,0.5,0],[0,0.75,0],[1,0.25,0],[1,0.5,0],[1,0.75,0]];outlineConnect=0;fontColor=#232F3E;fillColor=#7AA116;strokeColor=#ffffff;dashed=0;verticalLabelPosition=bottom;verticalAlign=top;align=center;html=1;fontSize=12;fontStyle=0;aspect=fixed;shape=mxgraph.aws4.resourceIcon;resIcon=mxgraph.aws4.s3;strokeWidth=3;" vertex="1" parent="1">
          <mxGeometry x="265.5" y="850" width="69" height="69" as="geometry" />
        </mxCell>
        <mxCell id="2_Iygicu3eXnhnH_t8sV-31" value="&lt;span style=&quot;font-size: 14px;&quot;&gt;&lt;b&gt;Amazon S3&lt;/b&gt;&lt;/span&gt;" style="text;html=1;align=center;verticalAlign=middle;resizable=0;points=[];autosize=1;strokeColor=none;fillColor=none;strokeWidth=3;" vertex="1" parent="1">
          <mxGeometry x="492.25" y="965.5" width="100" height="30" as="geometry" />
        </mxCell>
        <mxCell id="2_Iygicu3eXnhnH_t8sV-32" value="" style="sketch=0;points=[[0,0,0],[0.25,0,0],[0.5,0,0],[0.75,0,0],[1,0,0],[0,1,0],[0.25,1,0],[0.5,1,0],[0.75,1,0],[1,1,0],[0,0.25,0],[0,0.5,0],[0,0.75,0],[1,0.25,0],[1,0.5,0],[1,0.75,0]];outlineConnect=0;fontColor=#232F3E;fillColor=#7AA116;strokeColor=#ffffff;dashed=0;verticalLabelPosition=bottom;verticalAlign=top;align=center;html=1;fontSize=12;fontStyle=0;aspect=fixed;shape=mxgraph.aws4.resourceIcon;resIcon=mxgraph.aws4.s3;strokeWidth=3;" vertex="1" parent="1">
          <mxGeometry x="510" y="901" width="64.5" height="64.5" as="geometry" />
        </mxCell>
        <mxCell id="2_Iygicu3eXnhnH_t8sV-33" value="" style="sketch=0;points=[[0,0,0],[0.25,0,0],[0.5,0,0],[0.75,0,0],[1,0,0],[0,1,0],[0.25,1,0],[0.5,1,0],[0.75,1,0],[1,1,0],[0,0.25,0],[0,0.5,0],[0,0.75,0],[1,0.25,0],[1,0.5,0],[1,0.75,0]];outlineConnect=0;fontColor=#232F3E;fillColor=#ED7100;strokeColor=#ffffff;dashed=0;verticalLabelPosition=bottom;verticalAlign=top;align=center;html=1;fontSize=12;fontStyle=0;aspect=fixed;shape=mxgraph.aws4.resourceIcon;resIcon=mxgraph.aws4.lambda;strokeWidth=3;" vertex="1" parent="1">
          <mxGeometry x="701.25" y="905.5" width="60" height="60" as="geometry" />
        </mxCell>
        <mxCell id="2_Iygicu3eXnhnH_t8sV-34" value="&lt;font style=&quot;font-size: 14px;&quot;&gt;&lt;b&gt;AWS Lambda&lt;/b&gt;&lt;/font&gt;" style="text;html=1;align=center;verticalAlign=middle;resizable=0;points=[];autosize=1;strokeColor=none;fillColor=none;strokeWidth=3;" vertex="1" parent="1">
          <mxGeometry x="676.25" y="965.5" width="110" height="30" as="geometry" />
        </mxCell>
        <mxCell id="2_Iygicu3eXnhnH_t8sV-36" value="" style="sketch=0;points=[[0,0,0],[0.25,0,0],[0.5,0,0],[0.75,0,0],[1,0,0],[0,1,0],[0.25,1,0],[0.5,1,0],[0.75,1,0],[1,1,0],[0,0.25,0],[0,0.5,0],[0,0.75,0],[1,0.25,0],[1,0.5,0],[1,0.75,0]];outlineConnect=0;fontColor=#232F3E;fillColor=#E7157B;strokeColor=#ffffff;dashed=0;verticalLabelPosition=bottom;verticalAlign=top;align=center;html=1;fontSize=12;fontStyle=0;aspect=fixed;shape=mxgraph.aws4.resourceIcon;resIcon=mxgraph.aws4.eventbridge;strokeWidth=3;" vertex="1" parent="1">
          <mxGeometry x="860" y="905.5" width="62.5" height="62.5" as="geometry" />
        </mxCell>
        <mxCell id="2_Iygicu3eXnhnH_t8sV-37" value="" style="sketch=0;points=[[0,0,0],[0.25,0,0],[0.5,0,0],[0.75,0,0],[1,0,0],[0,1,0],[0.25,1,0],[0.5,1,0],[0.75,1,0],[1,1,0],[0,0.25,0],[0,0.5,0],[0,0.75,0],[1,0.25,0],[1,0.5,0],[1,0.75,0]];outlineConnect=0;fontColor=#232F3E;fillColor=#7AA116;strokeColor=#ffffff;dashed=0;verticalLabelPosition=bottom;verticalAlign=top;align=center;html=1;fontSize=12;fontStyle=0;aspect=fixed;shape=mxgraph.aws4.resourceIcon;resIcon=mxgraph.aws4.iot_core;strokeWidth=3;" vertex="1" parent="1">
          <mxGeometry x="280" y="1111" width="60" height="60" as="geometry" />
        </mxCell>
        <mxCell id="2_Iygicu3eXnhnH_t8sV-42" value="&lt;span style=&quot;font-size: 14px;&quot;&gt;&lt;b&gt;AWS IoT Core&lt;/b&gt;&lt;/span&gt;" style="text;html=1;align=center;verticalAlign=middle;resizable=0;points=[];autosize=1;strokeColor=none;fillColor=none;strokeWidth=3;" vertex="1" parent="1">
          <mxGeometry x="250" y="1171" width="120" height="30" as="geometry" />
        </mxCell>
        <mxCell id="2_Iygicu3eXnhnH_t8sV-45" value="" style="sketch=0;outlineConnect=0;fontColor=#232F3E;gradientColor=none;fillColor=#7AA116;strokeColor=none;dashed=0;verticalLabelPosition=bottom;verticalAlign=top;align=center;html=1;fontSize=12;fontStyle=0;aspect=fixed;pointerEvents=1;shape=mxgraph.aws4.rule;strokeWidth=3;" vertex="1" parent="1">
          <mxGeometry x="516" y="1102" width="46" height="78" as="geometry" />
        </mxCell>
        <mxCell id="2_Iygicu3eXnhnH_t8sV-46" value="&lt;span style=&quot;font-size: 14px;&quot;&gt;&lt;b&gt;IoT rule&lt;/b&gt;&lt;/span&gt;" style="text;html=1;align=center;verticalAlign=middle;resizable=0;points=[];autosize=1;strokeColor=none;fillColor=none;strokeWidth=3;" vertex="1" parent="1">
          <mxGeometry x="504" y="1180" width="70" height="30" as="geometry" />
        </mxCell>
        <mxCell id="2_Iygicu3eXnhnH_t8sV-47" value="&lt;span style=&quot;font-size: 14px;&quot;&gt;&lt;b&gt;Amazon Timestream&lt;/b&gt;&lt;/span&gt;" style="text;html=1;align=center;verticalAlign=middle;resizable=0;points=[];autosize=1;strokeColor=none;fillColor=none;strokeWidth=3;" vertex="1" parent="1">
          <mxGeometry x="651.25" y="1175" width="160" height="30" as="geometry" />
        </mxCell>
        <mxCell id="2_Iygicu3eXnhnH_t8sV-48" value="" style="sketch=0;points=[[0,0,0],[0.25,0,0],[0.5,0,0],[0.75,0,0],[1,0,0],[0,1,0],[0.25,1,0],[0.5,1,0],[0.75,1,0],[1,1,0],[0,0.25,0],[0,0.5,0],[0,0.75,0],[1,0.25,0],[1,0.5,0],[1,0.75,0]];outlineConnect=0;fontColor=#232F3E;fillColor=#C925D1;strokeColor=#ffffff;dashed=0;verticalLabelPosition=bottom;verticalAlign=top;align=center;html=1;fontSize=12;fontStyle=0;aspect=fixed;shape=mxgraph.aws4.resourceIcon;resIcon=mxgraph.aws4.timestream;strokeWidth=3;" vertex="1" parent="1">
          <mxGeometry x="706.25" y="1120" width="55" height="55" as="geometry" />
        </mxCell>
        <mxCell id="2_Iygicu3eXnhnH_t8sV-49" value="" style="sketch=0;points=[[0,0,0],[0.25,0,0],[0.5,0,0],[0.75,0,0],[1,0,0],[0,1,0],[0.25,1,0],[0.5,1,0],[0.75,1,0],[1,1,0],[0,0.25,0],[0,0.5,0],[0,0.75,0],[1,0.25,0],[1,0.5,0],[1,0.75,0]];outlineConnect=0;fontColor=#232F3E;fillColor=#ED7100;strokeColor=#ffffff;dashed=0;verticalLabelPosition=bottom;verticalAlign=top;align=center;html=1;fontSize=12;fontStyle=0;aspect=fixed;shape=mxgraph.aws4.resourceIcon;resIcon=mxgraph.aws4.lambda;strokeWidth=3;" vertex="1" parent="1">
          <mxGeometry x="980" y="1120" width="60" height="60" as="geometry" />
        </mxCell>
        <mxCell id="2_Iygicu3eXnhnH_t8sV-50" value="&lt;font style=&quot;font-size: 14px;&quot;&gt;&lt;b&gt;AWS Lambda&lt;/b&gt;&lt;/font&gt;" style="text;html=1;align=center;verticalAlign=middle;resizable=0;points=[];autosize=1;strokeColor=none;fillColor=none;strokeWidth=3;" vertex="1" parent="1">
          <mxGeometry x="950" y="1184" width="110" height="30" as="geometry" />
        </mxCell>
        <mxCell id="2_Iygicu3eXnhnH_t8sV-51" value="" style="endArrow=classic;html=1;rounded=0;exitX=1;exitY=0.5;exitDx=0;exitDy=0;exitPerimeter=0;strokeWidth=3;" edge="1" parent="1" source="2_Iygicu3eXnhnH_t8sV-18" target="2_Iygicu3eXnhnH_t8sV-24">
          <mxGeometry width="50" height="50" relative="1" as="geometry">
            <mxPoint x="450" y="740" as="sourcePoint" />
            <mxPoint x="500" y="690" as="targetPoint" />
          </mxGeometry>
        </mxCell>
        <mxCell id="2_Iygicu3eXnhnH_t8sV-52" value="" style="endArrow=classic;html=1;rounded=0;entryX=0;entryY=0.5;entryDx=0;entryDy=0;entryPerimeter=0;exitX=1.026;exitY=0.548;exitDx=0;exitDy=0;exitPerimeter=0;strokeWidth=3;" edge="1" parent="1" source="2_Iygicu3eXnhnH_t8sV-24" target="2_Iygicu3eXnhnH_t8sV-22">
          <mxGeometry width="50" height="50" relative="1" as="geometry">
            <mxPoint x="60" y="570" as="sourcePoint" />
            <mxPoint x="110" y="520" as="targetPoint" />
          </mxGeometry>
        </mxCell>
        <mxCell id="2_Iygicu3eXnhnH_t8sV-53" value="" style="endArrow=classic;html=1;rounded=0;entryX=0;entryY=0.5;entryDx=0;entryDy=0;entryPerimeter=0;exitX=1.008;exitY=0.627;exitDx=0;exitDy=0;exitPerimeter=0;strokeWidth=3;" edge="1" parent="1" source="2_Iygicu3eXnhnH_t8sV-2" target="2_Iygicu3eXnhnH_t8sV-30">
          <mxGeometry width="50" height="50" relative="1" as="geometry">
            <mxPoint x="60" y="570" as="sourcePoint" />
            <mxPoint x="110" y="520" as="targetPoint" />
          </mxGeometry>
        </mxCell>
        <mxCell id="2_Iygicu3eXnhnH_t8sV-54" value="" style="endArrow=classic;html=1;rounded=0;exitX=0.5;exitY=0;exitDx=0;exitDy=0;exitPerimeter=0;strokeWidth=3;" edge="1" parent="1" source="2_Iygicu3eXnhnH_t8sV-30">
          <mxGeometry width="50" height="50" relative="1" as="geometry">
            <mxPoint x="60" y="580" as="sourcePoint" />
            <mxPoint x="300" y="760" as="targetPoint" />
          </mxGeometry>
        </mxCell>
        <mxCell id="2_Iygicu3eXnhnH_t8sV-55" value="" style="endArrow=classic;startArrow=classic;html=1;rounded=0;entryX=0.526;entryY=0.977;entryDx=0;entryDy=0;entryPerimeter=0;exitX=0.5;exitY=0;exitDx=0;exitDy=0;exitPerimeter=0;strokeWidth=3;" edge="1" parent="1" source="2_Iygicu3eXnhnH_t8sV-33" target="2_Iygicu3eXnhnH_t8sV-23">
          <mxGeometry width="50" height="50" relative="1" as="geometry">
            <mxPoint x="320" y="630" as="sourcePoint" />
            <mxPoint x="370" y="580" as="targetPoint" />
          </mxGeometry>
        </mxCell>
        <mxCell id="2_Iygicu3eXnhnH_t8sV-56" value="" style="endArrow=classic;startArrow=classic;html=1;rounded=0;entryX=0;entryY=0.5;entryDx=0;entryDy=0;entryPerimeter=0;exitX=1;exitY=0.5;exitDx=0;exitDy=0;exitPerimeter=0;strokeWidth=3;" edge="1" parent="1" source="2_Iygicu3eXnhnH_t8sV-32" target="2_Iygicu3eXnhnH_t8sV-33">
          <mxGeometry width="50" height="50" relative="1" as="geometry">
            <mxPoint x="320" y="630" as="sourcePoint" />
            <mxPoint x="370" y="580" as="targetPoint" />
          </mxGeometry>
        </mxCell>
        <mxCell id="2_Iygicu3eXnhnH_t8sV-57" value="" style="endArrow=classic;startArrow=classic;html=1;rounded=0;entryX=0;entryY=0.5;entryDx=0;entryDy=0;entryPerimeter=0;exitX=1;exitY=0.5;exitDx=0;exitDy=0;exitPerimeter=0;strokeWidth=3;" edge="1" parent="1" source="2_Iygicu3eXnhnH_t8sV-33" target="2_Iygicu3eXnhnH_t8sV-36">
          <mxGeometry width="50" height="50" relative="1" as="geometry">
            <mxPoint x="780" y="940" as="sourcePoint" />
            <mxPoint x="830" y="890" as="targetPoint" />
          </mxGeometry>
        </mxCell>
        <mxCell id="2_Iygicu3eXnhnH_t8sV-58" value="" style="endArrow=classic;startArrow=classic;html=1;rounded=0;entryX=0.481;entryY=0.936;entryDx=0;entryDy=0;entryPerimeter=0;strokeWidth=3;" edge="1" parent="1" source="2_Iygicu3eXnhnH_t8sV-49" target="2_Iygicu3eXnhnH_t8sV-25">
          <mxGeometry width="50" height="50" relative="1" as="geometry">
            <mxPoint x="965" y="940" as="sourcePoint" />
            <mxPoint x="1015" y="890" as="targetPoint" />
          </mxGeometry>
        </mxCell>
        <mxCell id="2_Iygicu3eXnhnH_t8sV-59" value="" style="endArrow=classic;startArrow=classic;html=1;rounded=0;entryX=0.518;entryY=1.05;entryDx=0;entryDy=0;entryPerimeter=0;exitX=0.5;exitY=0;exitDx=0;exitDy=0;exitPerimeter=0;strokeWidth=3;" edge="1" parent="1" source="2_Iygicu3eXnhnH_t8sV-48" target="2_Iygicu3eXnhnH_t8sV-34">
          <mxGeometry width="50" height="50" relative="1" as="geometry">
            <mxPoint x="730" y="1080" as="sourcePoint" />
            <mxPoint x="780" y="1030" as="targetPoint" />
          </mxGeometry>
        </mxCell>
        <mxCell id="2_Iygicu3eXnhnH_t8sV-60" value="" style="endArrow=classic;startArrow=classic;html=1;rounded=0;entryX=0;entryY=0.5;entryDx=0;entryDy=0;entryPerimeter=0;exitX=1;exitY=0.5;exitDx=0;exitDy=0;exitPerimeter=0;strokeWidth=3;" edge="1" parent="1" source="2_Iygicu3eXnhnH_t8sV-48" target="2_Iygicu3eXnhnH_t8sV-49">
          <mxGeometry width="50" height="50" relative="1" as="geometry">
            <mxPoint x="811.25" y="1140" as="sourcePoint" />
            <mxPoint x="861.25" y="1090" as="targetPoint" />
          </mxGeometry>
        </mxCell>
        <mxCell id="2_Iygicu3eXnhnH_t8sV-61" value="" style="endArrow=classic;html=1;rounded=0;entryX=0;entryY=0.5;entryDx=0;entryDy=0;entryPerimeter=0;exitX=0.912;exitY=0.583;exitDx=0;exitDy=0;exitPerimeter=0;strokeWidth=3;" edge="1" parent="1" source="2_Iygicu3eXnhnH_t8sV-45" target="2_Iygicu3eXnhnH_t8sV-48">
          <mxGeometry width="50" height="50" relative="1" as="geometry">
            <mxPoint x="601.25" y="1160" as="sourcePoint" />
            <mxPoint x="651.25" y="1110" as="targetPoint" />
          </mxGeometry>
        </mxCell>
        <mxCell id="2_Iygicu3eXnhnH_t8sV-63" value="" style="endArrow=classic;html=1;rounded=0;exitX=1;exitY=0.5;exitDx=0;exitDy=0;exitPerimeter=0;strokeWidth=3;" edge="1" parent="1" source="2_Iygicu3eXnhnH_t8sV-37" target="2_Iygicu3eXnhnH_t8sV-45">
          <mxGeometry width="50" height="50" relative="1" as="geometry">
            <mxPoint x="370" y="1184" as="sourcePoint" />
            <mxPoint x="420" y="1134" as="targetPoint" />
          </mxGeometry>
        </mxCell>
        <mxCell id="2_Iygicu3eXnhnH_t8sV-62" value="" style="endArrow=classic;html=1;rounded=0;exitX=1.023;exitY=0.649;exitDx=0;exitDy=0;exitPerimeter=0;entryX=0;entryY=0.5;entryDx=0;entryDy=0;entryPerimeter=0;strokeWidth=3;" edge="1" parent="1" source="2_Iygicu3eXnhnH_t8sV-12" target="2_Iygicu3eXnhnH_t8sV-37">
          <mxGeometry width="50" height="50" relative="1" as="geometry">
            <mxPoint x="180" y="1190" as="sourcePoint" />
            <mxPoint x="230" y="1140" as="targetPoint" />
          </mxGeometry>
        </mxCell>
        <mxCell id="2_Iygicu3eXnhnH_t8sV-67" value="" style="rounded=0;whiteSpace=wrap;html=1;dashed=1;strokeWidth=3;" vertex="1" parent="1">
          <mxGeometry x="1240" y="560" width="170" height="740" as="geometry" />
        </mxCell>
        <mxCell id="2_Iygicu3eXnhnH_t8sV-68" value="" style="sketch=0;outlineConnect=0;fontColor=#232F3E;gradientColor=none;fillColor=#232F3D;strokeColor=none;dashed=0;verticalLabelPosition=bottom;verticalAlign=top;align=center;html=1;fontSize=12;fontStyle=0;aspect=fixed;pointerEvents=1;shape=mxgraph.aws4.client;strokeWidth=3;" vertex="1" parent="1">
          <mxGeometry x="1294.21" y="650" width="61.58" height="60" as="geometry" />
        </mxCell>
        <mxCell id="2_Iygicu3eXnhnH_t8sV-69" value="&lt;span style=&quot;font-size: 14px;&quot;&gt;&lt;b&gt;Mobile client&lt;/b&gt;&lt;/span&gt;" style="text;html=1;align=center;verticalAlign=middle;resizable=0;points=[];autosize=1;strokeColor=none;fillColor=none;strokeWidth=3;" vertex="1" parent="1">
          <mxGeometry x="1278.1100000000001" y="1238" width="110" height="30" as="geometry" />
        </mxCell>
        <mxCell id="2_Iygicu3eXnhnH_t8sV-70" value="&lt;span style=&quot;font-size: 14px;&quot;&gt;&lt;b&gt;Metrice,&amp;nbsp;&lt;/b&gt;&lt;/span&gt;&lt;div&gt;&lt;span style=&quot;font-size: 14px;&quot;&gt;&lt;b&gt;Data visualization&lt;/b&gt;&lt;/span&gt;&lt;/div&gt;" style="text;html=1;align=center;verticalAlign=middle;resizable=0;points=[];autosize=1;strokeColor=none;fillColor=none;strokeWidth=3;" vertex="1" parent="1">
          <mxGeometry x="1260" y="1040" width="140" height="50" as="geometry" />
        </mxCell>
        <mxCell id="2_Iygicu3eXnhnH_t8sV-71" value="&lt;span style=&quot;font-size: 14px;&quot;&gt;&lt;b&gt;Users&lt;/b&gt;&lt;/span&gt;" style="text;html=1;align=center;verticalAlign=middle;resizable=0;points=[];autosize=1;strokeColor=none;fillColor=none;strokeWidth=3;" vertex="1" parent="1">
          <mxGeometry x="1294.21" y="858" width="60" height="30" as="geometry" />
        </mxCell>
        <mxCell id="2_Iygicu3eXnhnH_t8sV-72" value="&lt;span style=&quot;font-size: 14px;&quot;&gt;&lt;b&gt;coustomer User&lt;/b&gt;&lt;/span&gt;&lt;div&gt;&lt;span style=&quot;font-size: 14px;&quot;&gt;&lt;b&gt;interface&amp;nbsp;&lt;/b&gt;&lt;/span&gt;&lt;b style=&quot;font-size: 14px; background-color: transparent; color: light-dark(rgb(0, 0, 0), rgb(255, 255, 255));&quot;&gt;or&lt;/b&gt;&lt;/div&gt;&lt;div&gt;&lt;b style=&quot;font-size: 14px; background-color: transparent; color: light-dark(rgb(0, 0, 0), rgb(255, 255, 255));&quot;&gt;&amp;nbsp;user experience&lt;/b&gt;&lt;/div&gt;" style="text;html=1;align=center;verticalAlign=middle;resizable=0;points=[];autosize=1;strokeColor=none;fillColor=none;strokeWidth=3;" vertex="1" parent="1">
          <mxGeometry x="1260" y="560" width="130" height="60" as="geometry" />
        </mxCell>
        <mxCell id="2_Iygicu3eXnhnH_t8sV-73" value="&lt;span style=&quot;font-size: 14px;&quot;&gt;&lt;b&gt;Client&lt;/b&gt;&lt;/span&gt;" style="text;html=1;align=center;verticalAlign=middle;resizable=0;points=[];autosize=1;strokeColor=none;fillColor=none;strokeWidth=3;" vertex="1" parent="1">
          <mxGeometry x="1295.79" y="710" width="60" height="30" as="geometry" />
        </mxCell>
        <mxCell id="2_Iygicu3eXnhnH_t8sV-74" value="" style="outlineConnect=0;dashed=0;verticalLabelPosition=bottom;verticalAlign=top;align=center;html=1;shape=mxgraph.aws3.users;fillColor=#D2D3D3;gradientColor=none;strokeWidth=3;" vertex="1" parent="1">
          <mxGeometry x="1295.79" y="795" width="66" height="63" as="geometry" />
        </mxCell>
        <mxCell id="2_Iygicu3eXnhnH_t8sV-77" value="" style="shape=image;verticalLabelPosition=bottom;labelBackgroundColor=default;verticalAlign=top;aspect=fixed;imageAspect=0;image=data:image/png,iVBORw0KGgoAAAANSUhEUgAAAUEAAAEdCAYAAACSQtW9AAAAAXNSR0IArs4c6QAAAARnQU1BAACxjwv8YQUAAAAJcEhZcwAADsMAAA7DAcdvqGQAAGdQSURBVHhe7b0HgF1Hef79nHbr9lWXJVvuBVvGBmxjY2wgYEoSIISYwEcnCT0Qeuj1TwsEAqEnIYEACSUECAEMGIKpxr3bsiSrl+23nP49z5y7tnBDK+1Kd3fnJ83edvrMPPO+U52cwGKxWBYpbufVYrFYFiVWBC0Wy6LGiqDFYlnUWBG0WCyLGiuCFotlUWNF0GKxLGqsCFoslkWNFUGLxbKosSJosVgWNVYELRbLosaKoMViWdRYEbRYLIsaK4IWi2VRY0XQYrEsaqwIWiyWRY0VQYvFsqixImixWBY1VgQtFsuixoqgxWJZ1FgRtFgsixorghaLZVFjRdBisSxqrAhaLJZFjRVBi8WyqLEiaLFYFjVWBC0Wy6LGiqDFYlnUWBG0WCyLGiuCFotlUePkpPPeYrEsQJTBM/O3wNOfzGHuB1IG0Xkxrzn/ZXe+vwvtV3xXbD39m4u08674PuOr9vc7n7sdK4IWy2Kgo2oSPUmWMr3cQN/8UAgfKAWO/kkSjCpIxPRmWsw67/Wx85P2a7kZBdJBwCO6uX53zVHni5tpRdBiWegoh08rn15o0k25OYUrRS2JjGiljoOIQpZI3RIXDi1Fh99pnyyjbefSuvP5mcoW8Msgzyig/DFN0ArK8HiMgMd2dI5iN6OT8wErghbLAielJIW0zWrK6TEDRY0mG6Y8B7uSDBPtEGNhgvE45vsI42mOBrfN0tQIoHA9D3WKYt0L0Fvy0Bf46C/76KtUsJbKWCnR+eUxC19bZ8zh55JFiozEtIuxImixLGCUvXOKmZtS/VwfTYrXjiTErXt34dY9E9gZBrQCXbQofCG3TVw5tn5hLt6NzOOxqGd+nqJEkQsyvrou6v44lvf24KSly3FCvR/DCSWFYprXS2Y/XYPL7boVK4IWywLFCCBDluUYa+fYRCH85Y5t2DDVRJtWmhxayqPZ1qW1JutNeFQ6Tw0ndyOkpddpT+n8KV5i6qVH97gatbGCX5y5chWOHRzEaq8N3/eNAFoRtFgsswuFjX5m50MHfpWaur6YPydo0l7bE/u4edc4rp6cwPapSbQ9Cl9OYcrovnL/1E34PqN3TLfXyShyOb+TIKqR487DGgtQImk8Xm1q5I/b6SUtS0W5L48FBlqKtXIJp5VdnLJ0GMfVy+iRYem5iPjimr2LfwXmDDpj8fEQY0XQYpmnFNIhKVJGnv4ipUubYopfXrV7DJfdMYqdqUcrblpw7sKhghVCpHo/uboKfG9E0jOCp1912Iz65KmBhJ9SvjetzJ3X0nQPmbshO7M/CymCPh55/LFY5ngo5ZRJX2I5fW5XZ+YV5NzeiqDFYtlPQgZJhkfxkDAJvQupShun2vj5HTtwI93eSVpkavUtFe0bv4NLQXIYIlppcnN9WpeVRPWCQOLRMuM+EkKJnX4vpbIUeQ5PVp+LgOJapgAmbmwE9O6U0ggtX9sCK7IUj16+Eg8eGELQkxTWpK7J5cllReqt2evQY0XQYpmHyPiiTlGdEqpfTkvPR4sff7pzJ67dNo5tCcXPr/AbWV1qEr5nNnf4i+kaQ7WToViNU/REOapUtlqPj3qlikDuM/cNkwjjjQijYYwmN06dAEHiUzRpZXr3LoI6b4oK3e+AjjmPjQZWDpTxuKXLsKKnjjpdcM9YqLQG+XJ37/5QYUXQYpmPSAVVL0gLK6VQbaeAXHLl9fgVbarMr6MV0/V0fFpjCYI8RtsvdtsX44Y6Cap0oSsR3dbhIZy0ehWOrZcwREF0eHxjCUqcVJ9Hn3icJtu1Y6P4xc5t2EIRmww89IdlCklxzH1R/WSF11FOAsQ088ZqMSbKMR60t40LHnA8TuiroJ/y41MBtTuNy8OCFUGLZR6iXOtkGWIK0UZaZz+4YztuohvcyHpo1WXwad1lsuFUzyebj27v3VEjxpCf4+SePjxo2TCOoPj5dLRN44e6yXC/wkTjF8ZiiwrxdSsYoQF6/fgErtmzC9c31cn6nqipQ400HkVW15DlVV5TGYkfYUU8hQtXD+OBy4fRR/XTSBNHnbEPA1YELZauRmImx5UCIaXxgBZFqdqeQKPUg+vDHD+4bRO2tBNEFBM/L3FLWnHcSwKoOjy1+Oq7WlSm6+ohClL0txs4uVbHmUcfgbX1AH208MwQOjehYKkpV80WUjzKg4RQv5pKPG5CQc1oHqpesslNbhzbi0s3b8Mmr4bQKaOcRQjonEv0TEMLgxphisYW9VVMTR/DPrryZy0dwsNWL8NSCa0ni1CNMzpLxzrU+fRxDrEiaLF0M7T0JGSSMU+dkCkWsUdRSRLcHGb4xg23YyeFJ5RoGfPw3q0pCaK6xUhWKlkTpw/24BHHrqEQhah17D5j7XF/03fQKJCx37ifPvM3qVFHCI0pyiBrr5GkuCHN8J3bNmN3HJhRJonGE99LX0OhYyaORwsxx3DYxvmrl+Mha5egl/t5EkNjdWqrQgglyXPJXIusxWI5GNQ0SygbVAM1gtCKilJcjQotwK0YoWUVdUTrvjKzXM0gKdNyBMpuGxcOD+EP163BUrqqfXKdJTwUpUJuijlhIuqQxhFLEGMKY8zPhabpLJ0z8Vo04rjH9XFstYTHrluO49FAJU7RcvuKbe4Fl+KnQ6U854Qf4KdbduCHW0cxReswkcimvM9OfaQ55RxzX8/NYrF0A3cKgd7IVVTjhIv/oQDeRkuw6dLyokiZfneFH3kP9L1PF9ZPWzhxsIrzVi3BYBqiTBFT/V7KY7Rpfcm9pTEGN45QiiZQjicQtPYyjCCIp2h9RgijCBEvJaRgJm6ZB2fgPv1ZjFPpVv/hiUdhlafuM8W57w1dpYRQ1mmbIri3XMHPd+zFlTv3YtzcA4M6b/M8Jswx1h22WLoZaYE67NEmyyh+u3MPP77ldvy4WVhTkr/fzcLa9neRoVdJU6ypAU865TisyRJVv1GJXOOWmjkVGKr83m2PA6N3oLF7M9qje2kOygL14VXrCAZXoL7yKGSVIWTlHqNPsqI8Cl7uFnPQNCLg6skM3759K/bSQrw3CgGUvqm+snD1HYremjzGE049HsfTYq3RKoQjgef2utY5xIqgxdLFyKDS7Hyq74sSD5fuGsN3d21DI68U7qIsJm1BCzHja9En8HfReIyBUoxnrz0WJ9ZowdFMS+EXU19RuNTe4iQNJDtvR7T5BjjjW+lyT9HhpvoYMfJoLbq0FimYlQF4y09Efe2pcCp9cGjJadIF1Q4Gulqefg/F78ebNuCSUXP6e6VwiQvpkdBpEgeNVDnZDfHkE9didcB78aat3LnFusMWSxdTTIPFbNoGdiY5vkuBilPfiKL5J0tKpp6RwITfU+S8hOKRw03LRprgJzi3tw8rNZcWrUq1IJe4tbrQtDJu0Z6Av+EqJFdfitreW9EbT1IAiY6riQ/4qrkHNY9grT2CyubLEF7xVTiTmxDLzUbEIHONlp8bY0ke4cIV67DUa8AznbkpuNRqNYQktO6ErtsIt8SP1yJBl8V7Y1LBJVtHMOFxW1qvaguaazvNiqDF0sVIqoI8xagHfP+2G9GeouVGUZlG8lBIRPFO1pUExXxD8fDSGP3UpxNWLked1tU0ZhMKU5BGiLbegtHbrqT1N07X07QHU/gkagx67bw3/QdpeQZZiHRiF3Zd/xt445up1JLTzoSsMl25fW/ZxYOPWIM6RVaWnobm6ZxmlAvRy77BOMV5iMT3cOvIFG7bO4WMfrCpCZhjrAhaLF2MpMWLXfxmYgRXRE1U0gp15t7r2oQEpRBBWVkptw9x6vAQlpQ9CkrhKkuUtImn1thdmzGx4QoMJiMoO5Hp+ZI591GXR3lUx2e5yHUnRnVqK6INv6TwqU9gMV9r7lf510HAc5ze04/lAZ1k7jM9PjnQhveB7yR0i3PwSvDb7ROY4g5efk/3fraxImixdBnT7p/62+Vxjj3tCL/ctRujpTrlRdNWmZ/vFTU4qEuMBEc9Xnrpjp5DK7BG6dR8LWYqfW1IC8tpjaF5+1XoTyYoZPS3KTiyAwuJvCdmui3zk2NaimvJJPLtNyDeuQlu0ixG8akVQxOz8mUFZfGYoQFU9IHXJBf4Pg5dYFqGI7QCHzdORrh1oqku18VPc+gSWxG0WLoYBxVc02pQCPkurqIZKNNqVr77gi6wUUC+8zKs7q9jNT8GZqZojfpQa7Lc0ohW4EaUxzbT0gx5opIJ6hnomaaS+0D9Cbld5pSNxVmmcO655dfwwzEzM8xdUpUj8GMs762hJ3VQTTRRK7X2PhRHna7zrIIKXW3XaWOyFOCSWzZgz31YpbOJFUGLpYtR4+zle3cjyQLUwwBtv5g09f4wK75RzhLuvHbZElTChJaZsrpsQXVH4du4jcbO2ylQE+a3xKkaYVNrsyOX996QNcdjqHFDfQQzN9DRUG7vQUhBDeh+F/KrvzlFOMJgXxV93Kcay7XVtFuFZXdPZINW6S5H8PMmYt/BHgS4Ycfuzu9zhxVBi6ULyCRsEifqT0yVmqAjqFlbfkDN2D2mrslAGMQo06JyKIj3hQQuQ8nM47eSFt7xXoBWReInYZNokZyWX+sOlPZu5A6F8Pm0/tRtBbnWBbmP4/PgshR9Wn8l1VVKMGkZ9joR0p03w2vvMptpei76y7TserHGT7CqOo6pchtTdHPr8X0ILK/acXjPTg/crIZKmqHpl3DlRIZt0nyHf1JNzVU8Jm0/W1gRtFi6DBp7KFOWUr7euHUL2hQV6YC6whSW1v1lW0lEEcpBgHJJLq5G4RZ7ylOWRkXbt/IohZwcLJpOP4raPKjGnNyF6gA1hX9vvX7AQjPRbGJPo4XQuNrT9y/uenewWBG0WLoAiVTHi4WbqC+fhz3NNrZMNBCV5X5KVGT9SLjuRwCMr1uIRaVcMqvBaf24aRHUr1kWY2JEzuYskUZwaKUlvyOCklheB084UO81XV303tzjDGjyWWyepAjyPuS2m9ubZawIWixdgMZFGIkzOTJHzMy/YXIKbUpVaho1JCiFwN2fCJqO05q6io5j2feMGy231cDd5E663CYLW8UynLOApyunECrsKygZr1fXXAlKPJdqE4urnwkajXLT3jE0jaje350fOFYELZZugH6qMvl0u6wWRro9aiHPfHgMPn+fFjNT53YfyPoqpCY344PLXjEaY9oSNNB9leU2c0m6DyiqcomzZN9j8nydQb+1oGwaRQ7EEowpgjvCBFMJ5Vv33Tn8vo7xwWJF0GLpBiQQfCmaDXJMpQm2RU0KoNcRQFl0hQLIzrtvtE3hhppO0xJO0+BhfiR8Q0vR2J2d4x00ZmgchVWW310n4qmL69DUNHo9ENlSl56262P7rj08cnHs2ZO/AiuCFks3QKFTN2ZPE1pR+BotH6NRjsRvM2gZTcfM+GIaR9RSeh/keQWRl6Eea8xxgDGZg0mnro4aovpBH2osUX8//qZ6xruHfYRsv3ArRqQDqq7k1Qi5Gku8EkqRg0YWoVGhZcrv0hmOg9MaKTmP+6vRNsLY5/U1EPP6zGXOElYELZZugDlRmVFuq9zdqThBdJ/dSe6bwhKjzUR9C3mMRG+MeE7/To3l30r/EE+oGsODJ+fBs6BGFdSIFgmt0Iw2+uBiMuwsuU6hn56if78xJqSD8UYTbeMSz75kWRG0WLoB5kQJiEsXUpKxuzFFKZu5SE3P2ky9QYui0ZYmUjiMbSc9YZC96fUPI3TVJ/DgkcualPpMEEZUHJ9nyc0qc3vbIc/r89poJRoffQZQABPKdjstgpncobibWcOKoMXSBWjiAGVujfbIAxd7whbFauZDxqbr5NQW24giTCW0Bl2/8y0lhG/kVpdXrkXLrEssJJsHTs7jZZVB5LVh89nJJVsiRZP3tbNZCLoni9Hc5/6Tcc/U5X5+gIkwMQJuGnlmdpj7xYqgxdIFaI03A1+0zu9I2Ka4SARnJlBFNxoJkzpYO9g1NoHUk02mL4uj5XKD6/3w+yhcZvtinwMlpvVaX3oEksBMw8rDadJWnovfj7WaGI95JblmsZGrP9NzFVNxJbQ2m5HEVSI4u1gRtFi6CVlLfAkzWm2a0HSGFJYgZUIWJd9t37MHWomuYPpV7rGPnmUrKb46X0eYOvvcv0zpGNOhQ6kX5aHl+0yO0GnHpRW6t9Hk+SnmdIV1dDOTzAyYvpZp935me+8fVgQtli6gTAVpqRbNc1Bmzg/ziDlf63bcvyTdncRLKWrqW6j+gQk2tiZwQ0bLTGPwKHI6nEaKOH4/sOwUjC5Zg5a+4LnAfdQvL6ahKNEp1iyWSKpDjSZO0MrE/JFWXZ77iJ0Smn4ZznGPo2U5rG7dxdWqtZjvgzTDDU1gLOuDn2eIfcphOrNxKjp/TRWLdIknvBglHtM427OoXFYELZYuo+jaVzRwzJRpb1N1grFbwhSquHbzLkSmW40OrHkFixo7mm8YWvNgTDk1pL7OFqGUMJiRH7ERUc0hqHpEBd98bvEYUzxPiLZbRr7keFRWrjECKTkxjb+JusPk2EY3/I6JcZ5NLm1xTjWOHBA8/1zNKWhF0GLpMpTXld0PNM8XbqdGWwRoemVsGG1iW7uFyFVN3bQIyrqqwF96MvqOPh2TpT4aeBQyrblpRqZ0grkIvfLF/NH3OdoOZbJvBcrrzqSY9tKILFHgeFKdgq8JbcErpprYHVJ8qcwZzy132TkAETTix0NrMoa5wIqgxdJlKK/7viyrA1HBYpIBjR1Wx+qMwjZOYbtq9yjGKEyZ02lYkNDRs038ANV1p6Ny9NnYW16Jll+XI0st1LJKalUuJFOturQDEXk1TNCCjJafgIGTzgIGVlPgij6BZhlPdfHhhztaES67Y5tsSzMhhNTRLP6U6b5mhsRPs2wb5sAatCJosXQZEsHAiODMLR+JlvlLt1ezRztOQlcVuHz3FHYmtN4ogoW2FmLi+ClCfxD+mrMxsP4ijA2uQiPooWD1UNV6aL1REClymZchplU55vUjXHkaetY/CsngWv4WGFdZUikLNObFj/C4P9+8DXtTnctHOZVrn/GY09d3APAcfjBr8978DlYELZZugFaS+r+ZJSgpFj3q1uJKVmYqhMX2xZ4Sw2KkseoGL7nhZmwNQ0SyzGix5RRIOa5atyQrVeAMrcHKBz8KfQ94GLKlx6DZswytnuVo9S5HSMFzV56EZaddgKUnPRRRZSkFsEzrj2eRhZfzOFmMiO+v3zOF6yZbPGuZIkwrkdtMX9W0+O4vDl1rs26Jk6Kmrj16PrOMQ397ZldlsVhmH1pustLk9OV0/b53+xZ8azKCZ/qdHFwWlZCoNTd3J7G+J8DjjjgSqyoUPidDeZ9uOJICIwcUNGRtIG7Si6UbK/Hxq7QaaxQ1vif7dt9pMNSTBvfNcPWkg69t2o0tFK6ShrkdJGpICb0c1XwcLz3qRBw7WEVKQaT9yV8LaT1YZl9WLRbLAUNDCi5FcKBeg08BOlgBFBK71Gua7im3TQL/s3U7Rngiual3xzQ+GNErw60OwK0NUP/64cpSvA8rrJ4WrvLVjRT/ef0G7KH/PRsCKCTKsmYrtFx7K6XO0+B1qBFmlrAiaLF0CcrWypA+M/5gpYK6+XYWoODlntzeEsadKq6dnMJIm5YeheXuSASNtedoMtcSrUAtwFTh5xI9Ubfz+90EiKLdpKBesX0Ee6qDaHkl00dwVtD5ePwlvo9e3zOuN7/kOYufZwMrghZLN0ArS9IiZ1PjOXpLAXr84ruDRe6wJmbVAui5m2FprY6BapU/3KUksrimxc3UJUoa1CBi6ig1zZeOY36+J9wt8FwM9/bAz2IjWqrPnBV4GLVRr+ntR50XQTkvnsl9XcsBYEXQYukGOu6dERqKSJUC1F8um+8OFtWr+UkF7SBHJW/igfU6+qV/wV3dVSSAEkLTFUXrfKa0HDtCY7Qy0+pxqfn9zu4qHdR6TJsRD1jSi5VxgxZshGiWNNCIHs975PASXo9GpHTObUXQYll4SDdkqWmIWL0SYHXZ73QwdmhhGVuMllmhLpoyq+iWov6A6oicIvZogWlkiJNMKxf3LWQjdH1UKCarKCQnDw5QtISUJAEdY8oW5aY5grFbf4Vo7wYk4RjFbgp52uarGkli5I29yPlbNnoHv8/MlF86hOxEnydZQxf+YetWo4f75BLGxEE51bVLaPiH16lO0+ovWLi1xavpz+hK7lwzOatGm0z/rv16eetH9da5vz75/I7MksgK2zpssXQDyoUULkmWQ+XT6mrX7BrBZ3aMwolzilYJocSCQmLWGpFIGCGUeAg5sequom8KhdDse3JllcPLWY7+5gQec/w6nLZ0EP0UHc1dqBO3PA9+3ER66xVobvw1fJdWX1CGU6Il6pboSgfIowztjFKZTKE6sBw96x+NsDyEsjn7XYq0m0bkj7fvwa937MVuLfdJqzGgk6++hB7Pp1e55bpandtonbkvXa+HSqL3OUIaqdq2lKY4aaCMZx1zpKkjDamAxj6WNcpnNBtYEbRYugFmQ2V+yYmj3s18tzNJ8P4bbkKDVmDulI1IFP3+aPXRWtQ/TZQgS0vrkEg0Wp4kIqUxqYm0QgQU1nrJxTEUjFOPWIl1vTX0Unw0HkTTW/HAyHgAd3wbWr/+IUpTGymyTR6DBzU2l2opqUga7uZz2zxBWOpF9fRHActOROKpxdbj8QivLaSIjbgebto9gUtHx9AMYzQiWaplM5ZZ25azFl+LezWTwHaEMKYZWFKHbt5b6NMqVItwEuNR65bgguE+VHlJKb83TrwpCKwIWiwLB2ZqWUMSPxpiRpwiusZf2roDl+/YialSD0WhjED1ctqAoqQhcGaSUYqGm2nCg9RYTjUK2LKKj9X1ClZR9Jb11LC0HKDmqe6uU9dHAdS+GuJWzSdoBf4WyU2/pkCNGVc2o+jqGkyQC85XL6M48lwtp4J4+Ej0rb8AzdoqI2aqEzQWqnrG0PWWjk80Uuxph9jcbmNjO8bGZhMjUQw/zY2YGa03Als0vMiN9xOfIshA7fXjCGsDD398/DIcU6OVqBEotFqLGoFpkT54rAhaLN0ALSzNtSdrzzNd7GQZRdiWlvGZX/0a22r9FIgqyiktsSAx9W1ak1ett1kWooI2yk6EBy0dxnGrVmKVX8EABbNKIdEaI4VRJ/UwKsUgOaRr6rRRmrwdE7QC+yd38aeUokpLUu7mvsrQEaxEAqiJGWil1Y4+A/5xF8DRusKyPrWJ6i7NfhQ5ly42xdqlBRjRxVe3x7HxFr67Zws2jY4irNUxzu9zWonqluPT3fbSwMxIw7vHIE3bEysennziEai6EQuAihFMcyJH9yEr9eCxImixdANatpJWVsyM7TNHOszkLUQoR1V8ccsmXDrWoEj0GkuvWaJYMNu6tObKdD9XBy4eMFzDqauHMax6Mv7mURzpPCuDy7Y02kFlo7gU4qY1P5DStY52YM91l6J/+20I4hAIAmhRt0DXI2PLuJ18NXqjUS1lHo1SnfLqSoNwT3g0/CNO5u8aY6yNim49CjG316vq72R9mmthmOR9bmq18Kvtu7FhKsYUhS/m9aRejIDvVdPp8e77kwaeePKJOLPHR8aSwaUlbESWp1HdqLaaDawIWizdgLIhFUM1foWI0GXkPy/0cXVrCl+9fSO25r0Uv4BWYAtN6sFQ2MKZA304e+VSrKiWUaY+qLtKIQ1ymTNofQ4tr+lSLHO6kpERWIkcBamxA41bfoRs1zb0RnR11Q3G1xT4qnvsXAevSwIqkaBtZ15No4aG1tFii0sDyI45C+W1JyEsDWvBUFqltDM176A6TNO1BS1HzUBTNOGkFHMPDQryOD/fsmcCP9+8C1u5aStw0N/oM0uGZsEIHlyr4CnHHodeWqbcneeUwPNi9MJ/xRUePFYELZYuRgbZOHXk27fejl9OAM28jBrdRj9r4kErl+AP1i7DEC0tjTKReBUtxxQHBo2Km/ZO78zkOa3LeJIH3YHdN/0W3vhm1LlLma5z0YWFH8hMJj8d8Soorzwe9WMfgrC8FF6pDI/H02XomqaFnbYezy9xLvN7tV2ndMcD3EqP/ZtXXo0dGqoX99PdjjDgjeJ5p6/HOm7uBRQ8HWyOsCJosXQxmg9aFuHtzRhfu+4ObKNVl3oJHlHzcdbxR2MppaQmiaNIaDEin1Yi3Kpp8FCtmVxr1e+F3CdvjQGjW4Bdt8HZuQE+3V+51G4Sm5le5C4XIqiW5v0XnSwPzdjhrL4MwfLjkA8dBb9vBdKqmmhkARbzDcqNVnBSWYc8j4SXItfyA9wy0cC3N2zHBk9Lw0d49FAPHrVyJeq8rtyzImixLFrUIdmnyDRpR10xEuN7N96E8pJe/NXaVeivVOjWSiYJ3WB1ilFnao0SFuWUe01tR7JnCxojexE1xuBHU6jGTVQSHnnaapQCFJV2FEG5mXq7/6ITm/pH1f9lvAYfUXkIaYVu8sAw+oaXwxtcSR95EC1UKdQOenmqWP0duY+rpfVoLbZ4/T/fMo5v7LkDSwIXLzj6WKxU/WZA554u/VxiRdBi6WIkgqU8pmubYIQW3i9u2YSVRyzH6ergrNZe9ZXT6BC+zej/tmg1uc1R5CN3INx+M93ebfDDBnppcZntJHymV5+ChE+1eKSjM0YPi7f7TejSjeVxAy0OZdxdfkmxCwPadLQ04/IA3KEj0bPmZKC+BH65akRPVI2NqAYhYCJx8I0br8dpxxyFM8p0qVPawDzG7DR/3DdWBC2WLkbzn/pG5GQNltGKUtSpMiW6jepSoz6CuZlFmtvQKky3XIvmHdejNLoRZYmSZoMxffESGlRF9xe5p3kemP1hFmDiK1VATqvpQzhTMgqpU0LqMnB/z1xPZBplTHMIv0v4Wxz0oj60Avm6RyMb7kXk+KiqwzaRQZjQcp2KS6gGPipOhNzVtWvum7nFiuAiQOv2+0psqiRSYuNb2QOlzmd5PkqEqqq+q/6mCEwgJpOpJbCTVwx8y6ADFCW5Za4p2kOF4sRYXBSZdtHcgHrUQLbpSqQ3/BBuRhHS8BFDEVOFuk0HMR1n+nyQ8WesS51Dkjd9NL7b16XWW37WV43+Zeg57VGYHDjO/FRj8NIp5F6NmzE9mYPsc7/m79yhFGxZ4JildZSSVOgyxj0mL2WdRF0RXLXd8XNG64K5qZzGdGva8DQlEhO36phSV1aHDqFkWYRCRnXQuU6iloJOlxXzVn8LC0pxGSQUxJFNGLvl1ybeXCN4ytrTBZQ+K4g7j9Jh3/cHiHHJi/MUaePu52LoCKIuzZ3Yjalbr0Fve8yssSy50xjlzriRYhf+md57rumc1bKQ0TKHkqyYKSqRS5TRNZLI0Y5IECLiX1VYm7Y7R9XVOWKKY8Rvks7IgcLqU5W79tOrut3a5HO4MPP8MRaCPEYpHkVr87UYSnabae/nsiV1NqixoM123AZsvc5cuyzJkO704cKm4sWAFNC8pIjo2qoWKKd7nNEvbqOMnXR1rwlD/HRiEj/a28BP9gLXhb75vunGTKNTlD0mVIphqm4NRhAth5NinDFf0xDh+B6Eo9sYLRP85lDZTwcB01A5bWPXbdcC4RS/0CC5w4etE1wEKIKN5caobrPcazKPjLVSbB+fwobRPdg4NYkJDWrXSAFNjkTXxXMi9LgJ1vXVcczQAJb3DmGw4qGHAlg2lqA6wfrzIcstSFQMyWZPkxBjW25FcuNPsTzczMhQDdvdkSl/GLL5fXW4dkJMeIMYra7G6jMugNu/0qSow2ULWhFc4ChyVcqWFM0JMEGBu2rPGK7YtRsb45SWHh1ctTRS/oLENW5y5idItZ4DE7GmNqqmHo7xc5x5xDBOWNaDXjrKPo+Z5YFxvawIHnpk3GvSgjhlpIYNYMNvgNt/Qff43rIzv+siEWy6bcRDx6N+wvnAwBp4HtORGnqcuVlX+PdhRXCBo0pnSh381McOWnrf3L4TV2xrULxqyKf7iO0HqVdhzpvCBSt68EdLhtHDXDhVCVCmqAamfsoyNxRyp7/KqNOWt5OyaKNoKPea+tq8hd27tsC//muot9osvLiH6yKhwISepqGKeBQdQZMZ6GiFLanBbAdNpt6MupDO1ZlSkX8yjV6poe3ROuXPpbQJl9e584hHYflxpwG9K0wdtLkuXRPfHw6sCC54coR0gqfaPn64aRt+Pj6Bhl+Gn/lMgDOI+pyWoZeiL2ngvMEBPHzNapRLKS0PD56ZPcQyF+wbQ0ZbOqQy602VhCo69E8il8Hfsxmjm24Edm9APR5lIaXJ8/m7U6xdp76BOqbacSU+6uR8sGiK1uJKdVQdTyFH263w/C3TEBfmZbT7jkJ59YmorF4HVPqRulrsqWjhLiZksJagZQ5Q5O6l1fCTW7fj1yMh9pYCJtGI7rHWo9j/RBfQcEjoNrdp9A1EbVywtBePOHIJairJrQjOGZITiV/ROn/Xp1ZKweNzlx1VTE1fSKGTuBSdCcQjN6O14bfoGd2Kckwh1Gwu2tdY7RLP6SmvJKYHR4pKcSwKWXG84lqbvma9SXh9Ptzlx8Ff91C0elehx42QqWM1dyquxoqgZQ6YXhEsYfRetmcCP7x9G3b6fSx9lXHUPEJ3SnPK7SeaeilmIpUV6TkpVjVH8NTj1uLkwR5mxsId7vauGfMRyYmersQlYuGTugFGppqo0cWsBSUWZim1466O7IoCLWaU5lPwW2OY2ngLop1bMNDaxINpylYi64/xaZSLBZvhYGRAw0TM+F4FyXHxVuukJAPHIDj6HLhLj+Y2LgLejO5JaDvdm3WHLXOColVC2EpSfPLm7bg5nELiV1GRpcAEp+nLtb7D/pI7tB1yJtc8YOLOUMtDnFbtwcXHLkevBrkTK4Kzj4oyCUWex2YuwC1jTbzjQx/DqiUr8LyLn4I1A70o6fEbDeIfbicxUZWg48g95X5TI3B33YTmyC5aiNtRTRqMP7rPRnim44yvBxp9dHfVoT5yymiiBLfWj/rgUpSGlgHDRyOsrQCTHSq8fk/uOd3k32U6HR7oBRwcVgQXKNOW4O1bt+PD25qYqtN9ShP0tdWxooImi2RPGWY/aQcZqnGOOndp+jkiz0N/4uNlxw7jiP66EUArgrOPDDaJYJqFaPDdp/7j23j/Jz6PkNb4w9afjL9746twxFAfrXPV+zmM08BMnyWvVI2zCQushJZhwg+VaBJBYyfyrTejveM2OK1JlDs99EzMHWD8tXm+2KvCG1qNysrj4A4dgbzSh9GgD1X+VtWSnZo6i55ExuDK9b1T+HiRFG19Olypx4rgAkJJSyuPxUz0QRQjTCv4LN3ga1qtYoM54NylFTxt+Uq6WS2E5RrKmcPMp+p6ZV3LwdJgqMeM2STB92/fgP/vde/EyF616VL00jbWrBjAW17xQjx8/QMwVC6hVr2vKo67nFD1F014vGR0N7zdG5E2x1myjSCIpxBkLWRaY5jpSHWM0+okgTLViT6tTL8HoV9DEvSi3DOIqeFl6BkYQrnSD5duurpbqQje/8qWw4sVwQWEkrkW6dH05KUkxp64jA9efS3G6AbPFUf4DbzkpFPQ70Voe2VUtFq4VtA+bOX6wiLNm/CSADduHcFTX/cGXL91N4K8Qks/huOre3GKYVrpL/qTx+IVz3wqaj39xY73oPAMhERQRp9GD0VOwgIsQR41GKbgpCH8tlZ9S5GlRXOLQ/XTcDxVKDourbaA6alUg1OqU+no/prodnhcbaeGt8KyOzw1fDPHFtcLiqI8U3JP6K7uaDQxZlYYmzv2xClG6GbHdMc0C02BFcDZwkvaGKdl9vZPfR63bNd6wBW4WpoySGnpJwgzn3FdwYknn4Rq5f6eu7K6ArfRZAYULD8roZ7VWHD1oeauRE/lONTrpwDDD0C0aj2SNQ9EuuYMJEecjnDlqWivOA3tZaciGjwe7foRaAaDaDp1xnqFKU8rxhVdZbQWiTpyzxesCC5A5IpmTOiTdKMi0zVi7mizvG+YjrkaOXKXtWE5cFSfKwdNrwmq+Nfv/ADf+9VvkaSeaZwy47hZ6ATUnKoT4+InXITzz36IifffD7eiVaf6W4+bq6pOlpypDjTBQZlppkpndt9Qo8DV9cpzyK9Qr8MeCl6P4pzWoZbMVCjsP6WFokCeD1gRXEB0OieYZOjlTJTqyOzNbd+rLKPrkzBj8dSFEzRtj1oOBomg6u1+dtMuvP9zX8RY2EaJLnCJLmpCEUudMry4jSc8+GS86hlPQp8v26vc2Xv/kEGY+DyeAhONgnoNqEGliMW7BdWcmcpCBVp6JhQFn/5qK6OkTHeghTpfsCK4oGAyZBpUpLqaH5Alup8VnWKFKeiV8ot3+mq/Udmuf9NMHyFg6V/ySvCyu+yQIjNYDoycWkNRSlPsHhnFX7z2ndjeiBihmvNR6w2npvMxGK/HHbES7371i3BEldabLEf3fgo8RcrdggYM+ancYgW9LzrFK141tdrdgzo3F0GfPQYtxu53Ct+ODOrtPMOK4AIiYAYJmVlkEzh5jGqvi1o4yXSpBEyRolCV1WEr98140pkQqMGDJkLk5Uhd1fmoP1pMt2gcFZ4HcUBL0OFxU7j73/PG0kEt+4a0yefcwh2NJt70T1/G5skJZGbabxfNkoe276DKz6uDDC9/9tOxfNlSOFU6qPSNaQzeN1K2ewtKBtpPQe87yUJ23N2D4lcjVPT6u7+pAFRhywNOH/f+rqXLmEeXavm9mDTYSdm0JgbrAXopjEYWXZbeDGYmaUcidme22y/Mgtg0HUqpR4tBaz8EtAICLAsq6O0keomtwnRGsuw/pm+fXEtaWKFbwSU//zW++f1L4bDgUrWG5n/UiAtjdbGAe+pjzscTLnwoylp/RN/d+dcyU6wILihUUhPlBsasaohOGBigC6WMQmvQ1CXpXcLvZiaCMUVQLk9Z9X+qB+SZ5AKvX7bCTJG+T806z8MXy8xQfDCeQqeMazftwts+8HE0WODIZVXBZvreJXz+ToqHnHYS3vKyF2CA3q+jpTM7WBE8MGxyXUDICjNd9BioUyhlEc5ctQJ9WYwgS0wmMdOy57IuzC4zgNmQ+2iqfuogibGSBzmhvx/qmZHRTZMEyzWa8aEtph4wZDlz09ZdeNU73ofxKEeUqZdewvKFz15WON+fuHoZ3vSi56JGq77sevSCNQStmCTLRItlxlgRXEBonMZ0/bTcpgozzppKgKP766imMSNb2US2IqVK7tUM8CicAY8tlzgK6Ax7MU6tl7EikOxlHQuzqCuymXHmqIJibyPEP3/lm7j21s1opRQ+s64wLcROh+Y6n/0LnvLHOP+EdfDcMmNYC2AVE+IKm5kPDPvcFhAmM0iBlHfo+krmKnRTT1wxgD7+5DFjqVe/Gjhk1eXMVCaYfQuXK6elWMw5V1h0akxWMN4wv1O9on7pczKctnopAnU0M5KrEQN8y3No/jho0k9aNym/LLbQObSBZfopmB4n/JOqQYtx8uNf/hZf+ua30VI8Mv7cJDGFi56gTyH8w0efjz97wmMQpBqL24mfTlC0F+8sM8WK4AJClp4aPnI3pgBKCUtULxcn9QZ40LIh9MQtfpci1TYSLlkZaknmpyITCWUk2ZRFKASO/5jpWlRVCeLKEHjMqnVYVaUV4uusrplWM0kyunAptu7YjiiJzNTvibp0mKMUR1rsFIVBgapqEz6vkIXGL2+8HW/60D9glIVGyGfsOp7puhJBM3oDFz7oNLzppS9Ajyp6fV8aWAR+vCsT3xWLlv3HiuACQm2HCiYrGBNOr8CSMMDDVi3HuSv60RPuNZ1i20HZdJcp0dQIsgwlZsRymqJK66NM8SrxO80hWKxFDLR4nLyUozcdxYXrhvGQYbrYFMMsLzpIOOrIS1Hd3Wzjle//OF74no9iDzXWdVM6bSH8XMJsk9t0HEkBXbXsuj527h3DWz7899g+1qAqal0XNYg4CH3GjZ9i3dJBvP55L8CRPX0URtvwNNvYxznPkTt15xAruqJRlCHr9AU0QihFLLnoZcY7f+0wHnPUKhzNbfvaKWJaiqFXQssvoxlU+Bqgoc+eptrS5zLa/Jy6JQxQLNfECR57zBE4c2kVFa0rwUwqd42H45/UWIGX/PoqXHrDFvzbJb/Ei9/8Hlxz6yakFFYz8aYGGMgHXNTo/gsLPKUQTkQpPvvlb+LKDZsRBSVmyJJZskDWuSZHLccTeOHFf4IHH30kPO3GOE3ur1O0ZcZYEZznSPymx5pua6X46L98GVvHWnSjmI1MnV9CIaMWehmGGNtnL1+Cpxx3JB421ItBZsIKrT9ZJnJ5M1MX6Bvrzsw0woyqBXr68gjnDffjaScchzMHBjCg7jAUwIjiavSPHyNm3G0TMT7y2S9gpElBpHB+97Lf4kVveh++/bOr0Uh9un6FWC9mIdTz0pKmegayjb//s9/gc1/7X4SxsqLPQoXfs4DhO1rqEZ77hIvw5094NK1s7qlKXlPXq5LNMlvYqbTmOYmsLBJFEf7+f3+Oj33wQ3jA0evw2Y9+EEt6NZ25fpeFQZiPVBeYurmpiN/RdnDjzh24aWQvJrmZk9PCMB1zJZoRevwMJy4bwglLlmJp4KFG8fPVsCKYIWnYkRDtJMPehovn/vUbcPktd2CKWdjJW/zd4/kD9Dkp3vby5+Cpf/Aw9FXLCDTyf5FSPDPGQZrhho3b8Oin/xXGSgNwWRhlfE5qePLdDH7YwkNPOwVffv9b0VevmOoGz0yd1ekOY3Vw1rAiOA+RNUGDwVhqUZLSpcrwhf/4Ot70+a8jixIEaYyLH/8ovP4lz8aSHs0Aotp0ipcsPWY0NY6oX5qTeAh9Hw1+34gpjNw35atmGalUPdQDFzVmvgrdXE0QooWZ8tSFqxw4nQmzCYzRinnvJ76CT/zHd9DSWFL+5mZtunN0pSmqJYruUJDiaX90EV7ytD/CqiVLoFnn1M6sfotyqQOTs4tDLjSmM5huL8tTxMxyd+xt4NXveD9++JtrTJWDz8JMndkjzzUtwUf3VPDRN78eF55+Elxa3eqapFX9VP9aqKA5pGUW6BTrlvmE6uBYeiHPEoQUpM9/63t4/79+De04RpsZpelV8B/f/wne8fef4uc6pVJyKRuQLi5FykGZQlaFE5RQoQgN85u1FLzj6iWcOFDG8X2B+TzMc1VpyTl+hSfUimJe0XdNqUaZkEELtGtM8iknHouKhuTRyTML/Zh6K3XtCJHRpd4bAR//+g/w4re+G1dvuoNCUBxEYn4n+74nd/s4/+jcgHlUes/gZDmSzMXnv/E9XHLlTYyfAGbdDY3J1sa0EIMwwUue9XQ87LQT4JcDPnOf1iHjYTq7WgGcVawIzkN8sy5EiiatrG9f+mt88FP/hj2Rx3xEEWJG05jeKVp5X/rWj/Gsl74Be/bsoftVOGKzTeSWUa9W8ORHnoOvfOxdOHlFP8oUZ40s0XhXyiAtSFqHVO40buNH196Gv/rbd+EXN25AM9b1pghoaaoN5+6Ze97ndd2AHC3GS2G/Z4wzBz+56gZ87J/+1dSjpnw2KeMr4vPS5j3MkX/6uEfi6U96AiqqA7TMOVYE5xHTNRdZHmOKovKl//khXv/ej2IPDYnIKTET0dIzm9BmoIvl0oIbWrKC1p8Dn27vnCALhcevuQkeeuJafPp9b8MTHnYWKmloloPU7CI0fnhJtPqY2lpODVdv3oXnvvqN+KevfwsjTVqKdOnVV442JBIKRnGX85u77oHvzDhtusEU+ytu2YSXv+XdCFl4aAyPGqNUUGjtZjWGnHXyMXjNXzwbdfVmt7nzkOC9lXTeW7qYfatuG8ww3/7JL/GWD38a2xsaVaCGCI33kLVXjAYJ4gae+Mhz8Z43vAIrB+Z2NTjlVR1a5x3qH8D5Zz9YLTa46orfGpGUFEoAld21ZKc+TIURfnH5bzHZaOFBDzmLXyWmRVr1kar5utNNnsfmYHEP/MM3YeZgZyPG2z/6aVxOIQzVQqw40XZ8Li4LtqX1Et7213+JM49Zg4oRQRZccxRnlruwIjjPkFt7ybW34G/f91FsGmnS9S1RNNTZOTRiqCxVYoa66KEPxDte8Tys7aVAzuEU+5qSS3VVmVO4vgEzbW8pxUMffAaGhgZxzU23YDKkwPF7CXlVi/cwX8e8pjb3vOKa63HdrRtw6jEr0dfXZyr/fYrknVl/nmrAXZedF41XmYd//vp38flvfMcsR+AFZZVsJu58Wr89JeAFFz8Zz6ArrFpcTVmfMGhUiGVusSLYxajmTz3xnDxClsYInQCX/PJKvOQ9/4DNO/bC8TSyQCMQiqFvqV9FOW3hkQ88Ae9+9YtxzIolxqpShppbOt02jLWnj5rNxsHJx67DA447Cjdffy1GxsYp0nTZTQOLMn4Ez8lMC/Itd+zCb6+5EUcdcQTWrRjkvjGFsliuR6Mq1GNxvhmGKQVOLbp5JCc/oOX+K7ztHz+HcXrGsna18LmbUQxlKPJen/Gos/H6v3w2aj6fncdCi9vICrQaOPfYLjJdTMKY0ewhjqM6Mwe/uWULXvy6t+O6PVOdzEH3kdsUIkE3Mktx7gOOwZc//j70q6+ZNlFmOgykmgWF2V91fNsmmnjhG9+Nn119C6ZSWovSZI1bZtIzM6HwLgMKZ286jg+8/mV40kUXIKfFWy5XKB/axjjcJswXUdBVpykt4Ay4bsM2POMVr8et4yFyn/fLeFLB4fBHLYj/gOPW4YvveR2OXD5EAaT1d5jibLFin3YX48sK5GubrtTlt92B17zng7hl915+UzQeSDwKF5gZh188/OQ1eCctwLLWolCF1OGsTzKj+134noPl/XV86C2vwbMefz6W1hNaSSFCv4Kws1B3wOtNswSTTg1//b5P4p2f/HfsmaJgmAYFPYOik4+kvrjv7scIHO9tR7OND37hi9g80eAjCeDSNRZqwc/dAIMVD69+5pOwckm/EUDZJNYuObRYd7jLmM4AasTIkhjt3MVvb92Cl7353bh641ZEavU1FpTKL83eQqFJIzyArudH3/BinHL0WpQoGMpQhdl0eIRQ9X5FY4yuNEd/rYyHnnk6hpcN4aprrzfdezJat/rNp9hpuLNauFsM1994M268/hqcefp61Gs9RvxcWU90G+Umi8Mo778XxaEaqppxjs9+87v47H99Fy1NNJHqeWSMHQm7ayateOMLn40/f/Q5qJVKvD2v88y6+e4WHtYd7jKmo0OvES2p6zdvxyvf8UH88obbEBs3qbAO5UaqL55mfFl/5Ar84wfejROXVhH4zEimNn06WvX+0Bv8+5696Cdn3mAiTvGjy6/Gy9/+PuycihFTDKWYmm1GK5fpvtw0RC8/H0X38ANvfC3OOOEo9JYcBBJBV9t0pwuzb1YKkxw/ufJ6PPUlr0Wj1KNiCWVawGZiMRZQQRziyY84Dx95y2vRn7fhBiUj8pZDj33qXYoy1E3btuNNH/gwLr9pg+mULA9X1oOaQlQPKIvwuDUr8LZXvRjHL6EAeuqzJ5dK0cqgTDnDtURmj0IQJH9q4CgsVw99fH3smevxlQ+/E4876zRUSgFSikROCymgSJTypqnGHM/LuGF3G694y/vxte9eirHJFl3mogAwwtqFTFtwasG/ceMmvPXv/xEpXXwvK9Pa5bNwKPq8N3UcP+3oFXjpM55oWoITR7NE6/lYDgfWEuwC1AqstgI30wR9WmsiwB0jLTzrbe/Db6+51siJ+pQJOcJx0I9KNIFj6h7+5e/eg1PoCvsac+rfXR6mo/bwyoauYvoKNHZW027JONw61sT7P/Nv+PzXvoOp3gE4YatYPY2WoRYXl9j7/FyiZfv0J16EVz//aVhbl6zmdJ+rqhFl0NElskUL+KG/U8WIKZLMbGEhBbBN2X/tez6ML37/cr4rZvlRC74x0FOXVmCMz3/obbjo7PWggcvLp1XP1xldO8+ltV5UVTA963ebOjofpLTE603cFi1+Xm9eNReduAl9gLnrynV/2DrBLqDo6KyUrD50ATaNNvDOD38cl/zmamYsuYrqTSaKVd5AsTx2WT8+9f/ehgcev44uMHMDRdBkst9BX8woa80J+15BSpePl8prdVHyA5xz9kPQ31vHdTfehDgMTYOBWVycFA0hOYUlw00334xtd2zCSSceh956nftrPZNO5xnN7tA5y6G+284V8C+tVCp7M8vxtR9cig995gugXcv7ZcxJmbiRZovu9Ry86Bl/imc+5SIKPqPNqN8BtHrzeJqooqgvLa6jxc+aBFen7LagYUPT76d4v5riLTDXr87zvH5HXeqLguxQYy3BbsB0maCFx5jYNhHijR/8GL7zk1+gxdSRMqVLIs3oAv6uT2t7E7z7da/Box58OgbLxQiMRKIw45x06Il5/er2Ilc9SzRUTlMuAP/z01/hvZ/4N1y3bQwhRdB0Dcr1K+FnlxZkKQ3xoBPX4ZV/8Sw88sF0pTWZg45lMg+V5jDcv86uPO5R8nJafN+67Eo8/80fxHhMWeRnsyYLg0sRCCiSTzrvDLz/DX+N4VoJZbOQkgq4onP4jC6fJ5YlqL2dJEfqebh5915c1Wh0Nuhe+hgeuHYIyzzGc67V8oi6TB0mS9CK4GFCj13B9AmLNe2Uh61TKV7xjvfhe7+8ki6VJqMv2hHVWODzd9UHVplOvvDB1+PMk09Cb+DRkqAAqMFA+alz7G5Gd2TKe6U6+cRmaq8M7XaGDWMJnvvad+HKWzaa6aM0S46sHbPwOF/VwViTRKzqCfDe17wUj374uSjldKMoAJkWeKLYeDIzDyESwJBi7jkRNmzZjr9643tx2aZxSngJQdYyjVmy0EtpgiOXDOCf/98bcOaxq0x8GguWcXdAIkgkG4UI8hp8F7/dfAc+PRKa32Z6rLlmX5E51YnxpJPX4UiV2maaN76omsRY9Ice6w4fRqYr0lWib59s4f2f/QK+dsllCDU1vvmpsDG03oSfRFg7WME7X/ViPOKsM1DxPboTKjkLC0hdUTo7dTXq76dr1igJCcBdl5xjoKeGiy48F1Mju7Fxw2azXIBZKUD3x9uTy6fheY0wxfd+/DNjRa5ZuxbValkNroXF1XmmhwpVZUjaR6McH/78f+Lbl/2W4qSOS/ox4/XKbc8w4MZ460ufjwsffCpKulYjgMr0ZssZx5xShlBtqP7HvPc7piZw81iAQB3SU712Z6iWXJw+NIh+XTojTk9QjXwmPRwGrAgeZmQNjrTbeN/HP42vfPdSTDKRKLMr4xgriMlcSaPKrPXOv3kR/vj8B8EvlYwlocLTzO+nLCGLqrCxuhqnY78YQeM74+ozpBSLMu3fAT/Bg9evx8DwSvzyiuvR4PbaQvZwEeg+qz+hW8ZVV12J7Vs3Yf0DTkCtygzGZ6K6xkNLxniI8dmvfRcf/dJ/YyoP4FOxPWPF8lrMfaV46TOfihc86TGourwHt6j31H0r9g5EtiUcwogH/xsRbEzgmoa8ioTiEptVB7sx9HoVnDnYb9a9yVmYm6JeN3SIC7BpDo/0LlJUyZ8wQ6jFMKR71AgjTLbaePen/wuf+q/LMN6ia5e1mZHbtA4zxAGTCZVuqTuBT7/tpXjKH9D9C8qo0cVSpbJf1CwzKBrny5T1mvJLbamFZBfBRdnh9bs9/HnAWIQvfsqF+MK7X4xjBwKUk9CIviZ19bMclTxEkLfRZMb56k9+g8c97xW4YvsEJsMQLQoBjTLIKZTcKm/NFnLlFXcKMSK+NnmuFi656ma865OfxygLsMwr8Vc6uB4LpSxGNQ7xB2eciuf+yRNQp8B7xlpVnafu5sAEUKgxxOxr4r84VjmmwGpeQnWR6uKQuZGZNCIqFbETMKJk8R8uDuOpFx+yY5ThNUJC9X2R5+OTX/02vvRf3+SPmvlZFpFKRtmByvBtLKn6ePVLX4hHnv9QWjpMMMbyW9ho7kNVFZx95hn4h3e8CeetPwk+hVBjbkMKfqRnxN/NzDW0qkammvjLl7wCX/vB/yEqs+DgdiVmsqL1ePZQVxRfgRnZzxhHSQlbdzbxoc99Be2Edl0W0QOmFca4i/m7x8Jq7ZJevPw5f47lAz1msggNlbN0F1YEDyUs+FS/p+4CWnnt45//Mj74hW9iPGTGoZtkMjWDcYG5bV88jr957tPwJxc9ClVPk27KzZLbu7CZHjqm1t8LTj4GH3nza/CsJz2Oz0APkJYEg+RNhYZGmbQyD9tGG3jzhz+DN3/kMxhrtficaQtqNhoer7A3ZoF9DpTwGlqMkb//p//Ej6+5nYWXT2GUhSoblI47LVtNKvvml/8lzj5hjZltW40ltAWLA1i6BiuCh4DplmDNjNIO25hKHXz+v75HC+KL2NOkk6X6PWZ6uTWqAVQr8ECQ4bXP+3M8/ylPwHCtjLIZDscMpBaABY6ZaopB45/VWfqopX14/Yueixc+408wSBeqTHGTvSy3WstXysJSY9LuMMNnv/rfeNU73o9bd4ygHRcLUc3WMp/UWp4LiBlV6ojyle/9CP/6re+YCVITBll+YByrlqJEq/Avn/ZkPP6Cc1HxJepFKzH/W7oMK4KHgOlWYPVlUN3Hl773f3jvP38dU3kVbhpTJZlRuY1pBaU10e/HeOGfPR4v+NM/Rh9NwrJ+kwVBK3FRRZmemxeY8dDLah5e85yn4cOveylOXjVIiyui4IQUlkLcTAMLN2/zGf3XZVfjRe/4KP7vuo1mOjL135sVEeQ5ipiIMDU2ghuuvQo9ZRd1h5YnrVRNkiB3V677hacfj+c/+TGomM6d6gbi85qLOlBLd2Fbh+cYZT6JoF6TuIlv//BHeM0HPoOtLS066aGetY0rnGroFLf34jb+4uIn4mXP+hMsqQSmtTNnxtYx1IqmjbTdYkAur9xOVYO6eYIKC4sTj1qLU9evx2+uvxETExOqWeDzKcRJk89qBb12Vsam7aP49c9/huX1AMcffdSd9YwHg2mMyGmBpgl6PB/rTz0DDzz9dFxx7eUYaUZ0iSsmnvtY2H30ba/BKauHzDovcuHNqaWH5s8sxKC5787x+Eat69vHx3F1w6QS/dC19NIyftDgACr0djSKRqNIMuaBoq380GNFcA5Q62DRBkwBYwJtt9t0yUJ87bJr8OIPfBbNJGHE03pwY0S+tqmanmV1r41nPvEReMtL/gLDqkAPmIHUKsoEruQhG7CL0/aso3stLCe+kxVsngVw1EAdTzz3wdi4eSs27hpD5AT0QuWOctMsMR2q1V9wJErxvatuNWOqTz75JH6fmnpVox4KjCN9NO9TxVpG0U1NpowpZKFpAdZwLp46YTwyfrRGstZNgVdGnYJ77LIVeOR5Z+HmTbdj28gO9LoRPvTal+Gih5yBoFQxrcFG8+4M+jMLWBGcNawIzhGKTtOIwYyn9TQuueJ6vP0jn8CusQnlN2Y3nxGvCn6/mCSAovj0x/8BXvOCZ2Ow6kMzrBddX7o4NR9iVBiorlAWouuX8LCHP8y0mF9Ht1QzWUugJAZqYZfYaOgdoiaG8hCPPv88VDXCxvSq5oYUpwm6qqqL1fhdJ+N+uUv3uWh5djMX5YQubEzBS/k9fy/zvD5/V92eGedB09D1Mgz29FEIL0DQinDuiSfhBU99MkqMUy1/MGdYEZw17LC5OcA8UP5xkrYZD3zp9Rtw8avejIlQVgZj3NO0p8y9TLxKxH4yjj86/2x87E1/iyWac8nPEHv83qzH0cWp+TCg5KrZWpTV87SNRjvCz667DS983buwJ85oWat1XXM6p6ilLVz4oPX4yOteiVVL6Jqq6GEGNMdhcNTKoY+0/rJ4isKnUczUTUzCbcfw3TLjooKJcgWTtP56UUOfOh92pv1pl1K0KLR9MWMpZ5wysnN1zTEeMKVacx92stfBuuL3wAhHIcZUbYRU5ss3b8a/7iruoZuTzcqKi79adyQGqgnTeIlWNm1ypnnF2uHAiuAsokepxJ7S1EsTJk7G6S+vuREvfecHce2o5sNLEWgkAZ1ftRZ6cYyewMHjzj8d7/3bV2OYWbNE95gpw5TsmlXDiuA9USchiWDROJJgUssP3LwFb//wx3H5TbdBxpBHEVq/Zjk++a4345QjVvAzLTgKhURKcyyaur021SqbwOTOaxHe8Bskv7ocybW3INq9jbmSZwl8xP39qBx/HFafsR7R+seisu5oTPb2MlZ81FRecbMiAzOeMnWHV/2uYk2W6BzGnbTPiuCsYEVwDtAoj1aU4Ladk3jRG96JKzZsRsQMlSnz8Z9xgdMU9SzERec8EO945Qtx5MqljIyEbrASQuEmW/m7dzIjNaY3JfVMNXmagSfBrXfsxN999t/wjR/9FMNLl+Bz738nzlq7AoH6rMgqUwMFNUOdmpGEGBu/Bls+/2Us/fHPMHD7bUicNkYrGZZORkZgzJT/LJBC7qsqDW/ZSQjPPQcrnvUc+GtPQjmuGgHKtXqmkWaZiXLqTF3G3MafFcFZw4rgLCNLQyMWbt26FY9/1iuxPQqYgVTv0YDjOXS1aAUysivc5vQ1w/jqpz+MFWb5tQxJWS3AsiACaMnKbk7IhxcNYNMT80zrMOIUJU8jShzsCR38w79/FSvXrMGTLzwPy2Qt8rlqfWZTlygRbE7itit+jeUvfxqyaIwWYqTufcZHdjwfUx5lVcND+Fnz81VD0OormZliRrw67hg+Ece97G/g/fFjMRb0YHlC0fNSWu/qCs2MnHZGhcxhlaDRPiuCs4IVwYNEg90kahkfY5bSgkCMmzZuxSve+0n8/Mab0fSYIXLN6qEc5iLOMvRoJMT6k/D3b3wl1vWX4JRKTM2yHiwHS5IkpnO0mF6+0okdNEpa3yOFO5Wg+Z0vw/3YW+GO0u2dAfSwEbFA81MfrYGVqL3gr1G++Jm0NOsIwhLCao6y6hUpmC0KIO3EucOK4KxxeM66QFDpkZlHmDCDxEyUHnaFAV71/o/jF9ffRGGk+CUePCbSjIk05R5V+mNnHr0cb//r52Pt0l7Apy+l1kzLQaPy3Iwy8X2UWLDovepo1YBRb5fQ13QQ/+w7GP+HDwIjI5299p+Y5VTmakRIiP7RjdhJK770xX9BELUQVoCA8axuPJnHeLamxbzBiuBBovoo/dUEoZt2jeHil74Bl96wFQ31cXECI4KBMUxUy5fixJVL8Nn3vxUPPGqIFkULqTKN9XtnDQmhhE/W4LRFGIFWIM24/IabcPsH34o1u28yQ+9mitbE0AAQHVUToKzYswk7/+VTmKJrHaqyURYNfeBIaULutWVeYEXwoMiRZhGi3MNtu6fwlr/7BC6/cSMzBF1gt2TWB9ET9tIE1SzB2ScchX98z5uwepAWoLpM+AHdNR7GauCsMN2PcN9XiSIdLjSzEWz+ny/i6O0boa5/6hRtyq8ZYCYrTWqIHR+T6j5YcuCM7sDeb3wRPVO71Z3QiKSpEZTvbJkXWBE8CNTO69ECGI0cvOFDn8O3fnaV6SCrbjB+qllh6EJ5ahGOsaanhne//IVYf9Ry+LQSM7eG3CmbCLCRMHdIBN2sgt7Nt6L982+YdUrUWb3oUN3ZaD+JfVV7pPAynyLKzxS6quZ/vPR/4N5yI1oUVkY3g3tY58ezzAwbVTOgKNv5lxlBIclS7No7jje/9+/wzUt/brpSKNMFaWxad9ULPnczrFu7Ap/5wHtw9knHosInriH4ksbCWdNRrdUwFygu5BJHCePhf3+A2k5a6Sqk0soBPXHVCcINGbeRqeIos6ArJ20MTO7Ghq/8G+OzbZKGVDa15v28wYrg/sJco+kylbzVxyynG7yrMYF3fe4b+PIlP0XIXKHxpsx53KboFuOmKU5evRLve83L8ZDjVxnpk5tsplriIYvmEGUWm2FmGwngNKV0HLt//F3TClkJ65istCliM3eHSzGMdZ8UC/2aYWsRI7EZUPIu/W9UxkbQdlPk3LBcbGKZB1gRnCFK2zElrOFU8ff/8h/4129+CxEzRznX6mJ0fF2XFoMDP4sxhBbe9fLn4PwzTzIjQOyswocO1QfeGaZGMbLpJlQYc3RUze/Ti9kfLLlTjFn2JyaQbN2GKgvJTIWhzVnzBhtVM6BwYF2MNkJ86NP/jo/+69dNP8DcK8FLPeMCaxFpyeS64V585j1vwkVnnoxq3IZLV9nMQGI55DR3bkWVbquW/VAcyoKbraSvY2mei744ReOOzfygYZEztzIthw8rgjMmxY9+9GN84ctfpX9UY2KnuDEnpK46umiB8BhHDfWY5RUfddaD4PM3x1efNeYPK4KHDLnD08GNEgpg0RFJ7qz0Sa24swMPSM2rMp7DVgOZRpvoOyuC8wYrgvuJKfGZsrUE0sPPOxvnPvQhCKhspU4rcEgzI3Ei1GkJvOEFz8GTLjwHJY0CcSmU6jJD7MM+dOzrDvt+jQVVYYlrmizz+yyJlOkSQwfB0xRc1QAtV8dnvBdet2UesODzpZxTBTVXqHQ2k4jwm4jfqbtsZr7gD/J0GfSiKdmVhs24VP1JO7OO8HGp0WN4yTDe++bX4NXP+jMsrVeZ0fg7LcHVA71472v+Bhc/9hFmPjmtOaFVBiWSyhoSUcuhQwIo/KFeJEGNnxmVihctFmKqLQ4eFY6a7WfMD9C3bNCMDfc0o0Jxass8YMGLYCE+McUrKSYzZUjiBkrxOIJwJ9zGzcDuXwI7GHZeAXf8FvjRTvj8PUlaiFnUh2ZYW9wRMU33nmOJF+Nv/vQxeOGfPxmDVRdDgYNXP+dZuPgPLjSV41pgW3VFynh6yEWesDnjUDHtCgtnqB/xipWm/3LmhYz7sunYPDvRQXc7T7Glvw9DR6ymHPqmn6BZUMQyL1j4EyiYjlsRZSmHkwVwo3GkjQ3wNl2O3VtuRntiM5Ntg+6SGi9chFiKWu8gE/Tx8FedhvbwyWiVVqHCozDrsJSnjaggaaMZMNIGXvbOd+CkU07FS/7sYtSyGJ5Pm9FMDW05XChZTw+bc9ttbPnwG1D78kdMoVSKymhTpFzjDxwcmgNXbDjvcTj9w59H5A7TC8gR+yltwjlMAyrQmQTtBAoHz4IXQbm2qqr2093Idt2OxoZforXtF6i0trGwTtSjj+IoK0/thurGUoebJdzPRau6CvnqM9B37FkIV53LxK3+fTwgxU+1g0ppTtrCtmYD1Wov+hy6QtxGLrAmTbUcPpSsp5O223bRuOF72P3K56EyvgW9kY+WbwbTmd8PBnUZHK/1oPaOf0D9EX+GqqN1YRLEjH4rgveOnUXmEDGdCdpMI046ifiOX2DXZf8E5+ZvYdnUdRSzcbourWJ+uawOpP0Mg9yW8palqFLchiY3ovfWSxBf8lGEN30PpeYWJBTINsUupkmhuj44Ppb1DaDPUxcZfWaytALYFUw3jKTUIv+EU5E88DxEeZ0CpWUOaMLPAhqBEp56DgYf/EhGfZnudmwKwSCznsB8YUHnVrlDPdEY0g2XYvxXX8DQ2BXoTccoUmVacjVkeZUh4OcMqddCGkyydKXI0ZVtBVWEAd3nbByV9kYEv/oE4uu+DT8c4YHp6lDwzEJKpuXXpwXIRG8qASnAxekth5FpAVRI6LOm1QEsecJTEFRW0xX2WAiy9JuFiMpqvRh+/NOR1FebhZgip03fwlMNjGWesGBEkEm6wNQB5kyDag5hStz0A0z85kuotrfBZymt9R/SrGI6N7um3wstRk2D5Gi0p+r6lDP4Hf+alctY0qe+j77oDkxe/1OMXfclVJJtpoEFbqvTOthB7Sf7fp4jTKt28dagazWf9adLgmJBb6evTWF22mNnTpnRGlD2es+5AH1Pfw72+EOo8IJUkNELYxJgzDPSFGTF+UobmUdPIkBirH7fjAsvRTWM0tttlIES95vwe1B+zBMx8PDHmnpgJhcWhyUmA/PGMk+Y6/x6aFGOI5KzjO6s29iC3dd8H+VoN3INpGdiNsspMtFrNTJTn2JwmRFk9ZX5m2vcWj/PTGDS5mF9RBTPctLA6M0/QGvLFaarTUvJfVr0+GoCORQP1VR3qfsOg8PgMrTd7gla41etpo5e73zOh4espCkrGFelftSf/1wM/unF2FwaRIsRNUZDPqSl2Nd2GJg+6MaO1lM0KylyFpq9cYxlrQQrpxLEpSYGWK6uGGVUR/2Iz3sCBl/9RmT9Q2ZhJw2h82kPqiy0Ijh/WDAi6EqVaMnlDi03vqu6TUQ3fg9ec6fJjFpb1lh+umVZfjMkdWtM3A0sjSfQuvkn8JubqHk0CQ4DAQVd/RaNzWvEkPeTJbRO0q4Jup7iunTFRQ/LImYOPWMsxnIqk8tCsF3rx8q/eDFKz3kJovIyFnRVU3aNVXM0KYg97SqGmnwNqWO8dn23qwZs73VNS3CJ3+/tPRLRU/4Sx73qPdhbXWNcbsv8ZcGI4LQDJoc21ao57V1IN/wfqumY6dbiGbXQ7crV1fuZkdHNcej+1uMI/o7rgD3XGFGdboGcfp0rfuf4qcanApPMfKOeg3Gf8uzRddM8d10SptwSJnhNE66HqUxVELzitNNyeYjp67zmtM5KKrh6j8KK570EK9/+d2ieci7ctI9WoAq6BCN9U2jTtVU6UqNZKXZRiSqohD3YRetxywnnoPr2d8J57csQHrEGw1HpzglcrRjOTxZQF5liOvWEQuenDbRu+Bac33wK5byBtDNs7WBQA37mNVCN1FvQwdS6h2Pg/LeYOkNlAjGXmUDRpOOb1zSidePhx7dtxq6oGKvq0TJsHfxtzhrlRNaqa4aUrSi5OO+Eo9DjUARd9bg8xEh7+WwkbL7+MMU3+Lk+1eCHPdj6k29i7z//C5Zv3IpSEiF2xuDTW1BsxhTyBq/ZqQ4gefrf4NjH/CHy4SWYqNZVLKKq7HM41ojhc7VdZGaHBSOCnbRNFyaCE49iw/c/hZW7f4hKPsnfaAIwQ05PnyRLUHV9M8FlQmuWQ1Ta6gw7ia09a7H60R9B3Dtw56pmc8ndRXAbE8+/X3kjNtO8iVwln2LkQrcQM1P6fGY9cYp1FJynnHk8htUt5TCIoBpq1ZChBBJ5RTVClRZepAb9jKmBz9ONJhDffhviDbcj2bUbUdJAHPBZL1mCylEnYGDdsXBUj0hB10Lu1bwocTTy5DBIoBXBWWTBiKAStqdOzkwUTnMbtv/nq7Es05KK07d3sKmimDfOySo8lzICM88fvAfBijOMOE27RHPFviKY522MplV88sZbsIG5sMIM3aLJVeqiubrafoQa3UjNqnKC18ILTjkZJSb04DBIhkkbnWSQqTeA+dzp58kPjEqkiSbASJEFDsqxGsMKS1Crxym+c4qMq+U8PVrdjGuzLrQ4XI/ciuCscXjOOgeYODfD2TJEYZOC0GRC1VzQ+uXgU4SOU7Qq02qgq+TTUgibxbKNcyl+94YysSJO+VBZWvWdyrZqneyWoGnFJC7mGvm8XIn3LMTDgWBkV6dmYFHFz3xj3jPoe75xfH7vuChn/NWnZe8HfKW1x7jVWHH1FHA9uvfcZnp/EyzzngUjggYlVIYsjlApsVxRF43OTweLutZIaLSgIh1QhpjWQ8sI4HSwzF8Uf9PrFO8bZOFPh+nvLAuLhSWCSqRyVXxKFN2bfBaHrxXz0GmpdVqXdLtVv6juONO1CQukVmHWYEyY1/nyXPYVvvvCCuDCZMGIoMlqrqY89eCXawhTBxk/z5YQFtMrFLXrGS2GtlOG07e0+NFyT6xeWOYJC0YEC3kqhjl5lTrK9V7TKjx7dgiP5BTdUWKeJw56UB5a3fnNYrHMVxaMCFL+4OQR1VDzRvcD6x6HNC7RYqug7ZahtWIlZBEtOLVDzRQ3rZruFUk+bFqxWqtOQI8/ZH6bbrk9VCjS1OjgKOz7vouCxTJfWDAiaEa+U57Ucpe7JQyfcCraPctRojhWs4a+pThK/NTC2+lGMAMcR6uVleA649zbx9Cqs5B4wZx3jfl9WK/TYjk4Fo4IFvZRZ1JTvu9fBWfNGfzgINCkqbRONM+fum9MW4Uzwm1SBDVfXBMYWItgyXmIKbaHWwQtFsvBsXBEsKNDepEm5e4Aeo47F3HPGoRODzIKlqxBjQqVEM4UHVPzEI77S1A++nyg50g+PCt+Fst8Z8GIoJE1iZtmjOGLJs4vDR6PysmPw85gDSI6xkEe0l1OkLgzrxNEVkFTnWiPfDyCEx6DqASUu2eUmsViOUAWjAiqdVgTo0r+zJT5+uz3oXzMw7B8/aMofBLBCG6emEkyZzp6IU+rGFy7GsPrn4rxynKkPl3qeOYWpcVi6S4WjAgWI1Jp4bll88F89nyMVFbBe8DT0LP+zxCWV6KUZahSDB1P3V3UQBJSPGOKZI6Q24coI88zbtdCKdUsIykFr4StJz0bOPO1SGpDZmomM4C+ZEXQYpnvLJw6wftgQI0gFLjs1CcjveANGF33xxj31yJM6vy1h9ZhBaXEQS1O0RNHqOcTFNAUDdSxu7wOkysvQPUhz8fRDzwPoADmEtk7sSJoscx3FrwIumjT0nMx6Q+ifcS56DvruRh+2AvhHH86dtQGsb1UxWiljImyiyladju95dgRHIXwiPMx9NDnYvDcv0Jr3ZOQlZci8XqRTc9NaFpgircWi2X+suDXHc74TzOaaJyHWZMj1zojJbhpk57wBNKJ3Ugm9yJP2maKpLCvDz39Q0B5gNvVKXw9Zgot2X/TD0rap/n7zEIjh2hCzekO2Sa68jYmkio+dtMtuJ0X1xNKwDMzf1+3EAUhau0aIj/FiX4Tf3XSKfBUg7Dwy91DA5OenUprdljwKTLnLWrypGK9i9SIlhJMIwgQ9vTDWXUkyrQKyyefA++kcxCsOhth/ThuswwZBVASp2lA9aD03jNH7MjhLE7QYLFYDg8LPhd7sv5YZKZuD0K/z3SPqbL0rKcllJMaS6F+/j5IjRxAkvehnKcoUzDLmjMQCUUvorkcFlafRFSzN+s9pXWmLcwWi6X7WPimjGbN5F3KipNLW/QQ7HyhDwp87zGUjJ/LLzy1MvMLs6B6iYF7yuq78zvtzBfz12KxzGcWvghaLBbL/WBF0GKxLGqsCFoslkWNFUGLxbKosSJosVgWNVYELRbLosaKoMViWdRYEbRYLIsaK4IWi2VRY0XQYrEsaqwIWuY3eY4EGUIGTZNr5ra4e7jXL+c46CXTS/Feo83T6S8tXYUVQcu8Q8Ii4TOTwMUO/MhFOXThpo4+3jNw+0MdEobMSdFGZMRPc26k/EUTcGg6tAU+g928woqgZd4hiXFo+zUpMntKwIQPtL0cYU6RibX2y+EPWdrkFU4iSFrwokl47SZKjRjtVOJtBbCbWPCTqi4UFE12UtUCWYF+SkuLjyJEA3u+/nX0b78dmSsr667j37Uc9OFI4hli10Et8tEOYpRjF42BVeh9ylNQqgyY9aoVDhhalnZS1dnBiuA8wYrgXdDWQkl/jI+5Dbc87zlYddWPea7E2Ij35NAncZenjNwA/c0qdve3QB1E85hzsPrT/wS/b82dInjAC/dbEZw1Ds9ZLZaDghlfAug7GKn5GKu5mCynSJiaA5qH9wz6/tAGzTiZeTGqaYwKQ38Uo5eFVTI9F+WBip9l1rEiaJl3BEy2abmFnEJST+pY2oppDZcQyKKgttwjMJUf6hBS62gEY7LSgkNRFK7bpDiW7hRAK4TdAaPLYplfOBS72LS/UmgyOlEUlyYtQbmAZiLxuwdud8gDL64e+YgDXWNgxDj1Qjj5QbjAljlB8WWxWCyLFiuCFotlUWNF0GKxLGqsCFoslkXNvBHBO7szZhn/TyHJW6od5+dJvrQR8uckz7oihLyshi5NPdp0jXmIFAmDxWLpNuadJRilGdpphDSZQhZKZMaRxWMMLaTxRFcEtz2GWngH3HhncdGmMTDt5v6rFsuiZd6MGMloAYp8ahcmbv4anIktqCb9gDeC1NUA9R44Tqe3/OGGlxr7KdpDJ2L5Kc9E4qXwZRJmlQMuduyIkX1IgLY/jlLWjzxpYetzL0TlustRShINnugKGC2oRj7CUgInC+ClMVrHr0f/Z/8XpYElJi7tsDk7bG7GSAjd0VvR/OnbURm5kpZWH3J/ivHNp5jWmCL42hVQlIIyptY9BivOfQsiz2Hmp/ueVa0IWhG0ImiHzR0csVvFuD+EyC1TXPg+GETDG0Tb60XD7+uKELkVZtAEpZyxmzORknz+PWqLZVEw73KmCrhSHqGSTfC1yc8ZvDxFQMHxKTzdEJzcQ+T0soSm6SMLjtfMq+zq0tliWazMOxGUu9MTN2g/96LpV/leLa9VugbF/CHdEHInKyzBLEfmO6AUwsvSrnHVLBbLXcw7EbyrAtPh+0JV9Fp8v68UHc7QQdV3nbcWi6U7sRVVFotlUWNF0GKxLGqsCFoslkWNFUGLxbKosSJosVgWNVYELRbLosaKoMViWdRYEbRYLIsaK4IWi2VRY0XQYrEsaqwIWiyWRY0VQYvFsqixImixWBY1VgQtFsuixoqgxWJZ1FgRtFgsixorghaLZVFjRdBisSxqrAhaLJZFjRVBi8WyqLEiaLFYFjVWBC0Wy6LGiqDFYlnUWBG0WCyLGiuCFotlUWNF0GKxLGqsCFoslkWNFUGLxbKosSJosVgWNVYELRbLosaKoMViWdRYEbRYLIsaK4IWi2VRY0XQYrEsaqwIWiyWRY0VQYvFsqixImixWBY1VgQtFsuixoqgxWJZ1MyJCOZI+TdmiPiBrzk/59kBBO13V3AZgixB5NSQeylyhwE+PKeB0C1zm6A7Ajw0vSraDF42ioTfJLw+l1d77/f5+4Nz52uOtusicXiWLICfBHAzj88CSN20a0KQlOHpdvkssryG1OE1o8knwfu4t7DPvf6+kPgA7xpj7hiP3mLcVxDxmURuicG7R4gVnEMbXEZI4icYKzF9Mi8kJcZPXoefKcvxPhw+nAO8f4XUzfhsTcri7olJW7nD8zBfKNxbnHRL8POIzyREKQ75l/mZ8elTKu7tPu8/TGuD3nP/A2RORDDhLSZMpilKjJhCFMypmBFmFrjfPiFzfB7P4ZEoBgweH4CfJyhloXmobpcEP2/zmtpFOqdIM4p4vYJ/7/U+f3/IzTPQq4sKI93lsVM3QWwSfc5nwzMxg3VLiHnZCQNYUCm+Aj4EpQhe+b2Gu9/v/QWf6d5rlVBDlWVtBaXUQSWNUGWoZOk9QjU99KGU5borlNOM12cin/HFwPSbMU2YwmGf+1e83tu93ldQLpABoKcK12d+c/jMfQQ8icK9xUm3hJZXYcHFuMsqfAp6FoSF2L3d5/2HaW3Q+wPXQe49+/CyOpm+c2HmA0uqzuf9D7/7T99I/iJaVZHD0p8WYeyU+a3PxBXw++4IssrKeZMPV6nfNQ/ZY6YAM+Tv3t/+BzH96jBjuRTCxEsQBgnFppBZJ2fm6JIQMxFkLAVkvfuZCiw+A/1mrvSeYd97/X0hVQIruRhnIdsulTBZcviq8/FY/HP3YH5QpBzCUBgCDgWbhkDWizYvWRarcMxd/O79i7vf5/0FRbkeQ/GpwNG5TWq7Z3x0U0goXCokkfssLGQmEHl2+mo/w/SbOz8TY3RMf5gB9K7oX8024QRyikFI1U8ZxR6tAUoD389Qcx1lbsIrLESQz2p8M8IfvQOV0SvQ9pehFrXg0B1u+dXiIXQBSortYBDjqx6FtRf+JZrMBNWswevMKZJ02w+SjFG2p+3gcxtvxe3M4H3tgPfPDN/5vRuIqHp9Ia0TL8KJvofnHH8isnKI6iwkNzfz6T6FaPJR1kZybHnRk9F3y4+M59EMCmkAz3M4k4MksEaPgEYqqu0KRir0DI44Fcs+8R+IhlbD9Vg4yoI5QDzmLXkBsiuRMF2xMPjt5k349713pYK5yNqzwSqa8k8//mgcqw8UxJCfHYfFRM6SbD9Ras9199QIKYvPWw1oged+BZnr0bCk4NLq3h/mRgSTSUxGOX5902Zcv2ELwogJgIkiZykwIzoiaLJ3537ydgO4/fuoTd6EiWA1qjHLXKdJE7tsXMRuIaYoJ33Hou/IM1jy0ezPYyPkshAOlkiC13bx68kxjDAD9LZ9jNPI6Kb7zyn41RgUpRzLmdnP6R9Go0JhSFVXfE9mcumy+qtZGyPVBJVGGemXP4t89ybjctMmNNvsm6wPx2PRNXpOzLjKEERDzOijGO49GuHFz4RT7els9bvM5Dpd5qVY4kGPoET3N6ErvHVqCldMdQwHsZ8icKhZQhk4ZbiGQd5xRuFL6dE4TsjSff9FUHWuqhqTF+TQyOrxPJx67LF44AnHo1ouIaP34fvGxvy9zIkITiZtfPX7P8X/+9SXcPveKRVUvNCijmRmFBG67wUmKKOSjGEw34697lpUuInLUiR0SxSafRLAYUTXK+PecxjBTKwZI0v1QaJwjg+O2J3EYMunwARMRB7qETBWowsedyqfuoCEJbHq6loVZsQkwzC1abTGhEkr7t4wntx+kqcB+qMG9vbKeujD8om9aNbqSJISXSvVsPPru4vgIdYDh65eOW+hUY7hxkNMo6NY3qjitsE+BElxjRKp6cuayf0LVQulntJ7hmokq8hH2+M501axgehSSzBx6nD8JvOGLNkag7RBhZfaD/YPl5aw7k7WsFRB9eRHL12GNz/nqXjiox9uBFCW4P5Yg7MqgjqUFHg083Dexc/GTSOMkNRHJW0zEbTkIHS2tFjmAhUwh1jtZoyEqzvFaX4hEZQ1SHeYAqhXCd4JS5fjx1/+Rww5ETxah/K8PLPlfaeLORHBDVtGcdZTLsZkZZjflVHK6ALR3FVFucUyd1AEZ2pSHWpMFY/NBwdPUSdonidf1GSaU3t66A1d9vUv4LilVXj0lFIjgrKblS7uPW3MjSXYSHHqRU/AXq+X7lrV1FVlbmG2Wixzx30n9O5B2c2K4EFjhK+DqQbL6G3mWE4X+zff+SqWlBM4QYWGl2u6Zt2flzAndYINHvFl73kfvnzJTxHF6kDsIvWoxaZvg8UyV1gRXCzI4NdTVOu4SwmTsvi+h2c84hx8+G9fjgoipG7JVD4ExvjSFodQBKMowi2je/Fv//1d/OKyyxFHKSJeg5fuX2uNxWKx3B9F1ZqpFYRHCeutVnHmA0/HM570hzh2eZ8RPo3SkgiWDocIYrKJtOJjIqN7HGbGK2/Tdw+c7mm9tFgs8xeJoLphadCARDCPEtQrZTiVHg2doPObHmYRtFgslkPEvhK2vx2k98WKoMViWdQcfM9di8VimcdYEbRYLIsaK4IWi2VRY0XQYrEsaqwIWiyWRY0VQYvFsqixImixWBY1VgQtFsuixoqgxWJZ1FgRtFgsixorghaLZVFjRdBisSxigP8fzWEYemfcGrcAAAAASUVORK5CYII=;strokeWidth=3;" vertex="1" parent="1">
          <mxGeometry x="1278.1100000000001" y="935.5" width="101.37" height="90" as="geometry" />
        </mxCell>
        <mxCell id="2_Iygicu3eXnhnH_t8sV-78" value="" style="sketch=0;outlineConnect=0;fontColor=#232F3E;gradientColor=none;fillColor=#232F3D;strokeColor=none;dashed=0;verticalLabelPosition=bottom;verticalAlign=top;align=center;html=1;fontSize=12;fontStyle=0;aspect=fixed;pointerEvents=1;shape=mxgraph.aws4.mobile_client;strokeWidth=3;" vertex="1" parent="1">
          <mxGeometry x="1305.29" y="1136" width="49.41" height="94" as="geometry" />
        </mxCell>
        <mxCell id="2_Iygicu3eXnhnH_t8sV-79" value="" style="endArrow=classic;startArrow=classic;html=1;rounded=0;entryX=0;entryY=0.25;entryDx=0;entryDy=0;exitX=1;exitY=0.25;exitDx=0;exitDy=0;strokeWidth=3;" edge="1" parent="1" source="2_Iygicu3eXnhnH_t8sV-16" target="2_Iygicu3eXnhnH_t8sV-67">
          <mxGeometry width="50" height="50" relative="1" as="geometry">
            <mxPoint x="800" y="1060" as="sourcePoint" />
            <mxPoint x="850" y="1010" as="targetPoint" />
          </mxGeometry>
        </mxCell>
      </root>
    </mxGraphModel>
  </diagram>
</mxfile>
